<svg version="1.1" id="Layer_1" xmlns="http://www.w3.org/2000/svg" xmlns:xlink="http://www.w3.org/1999/xlink" x="0px" y="0px"
	 width="100%" viewBox="0 0 987 1280" enable-background="new 0 0 987 1280" xml:space="preserve">
<path fill="none" opacity="1.000000" stroke="#000000" stroke-linecap="round" stroke-linejoin="round" stroke-width="3.000000"
	d="
M217.000000,828.500000 
	C218.172577,826.850098 216.819946,824.629272 218.457047,822.957947 
	C220.418030,820.956116 222.575470,820.332764 224.975449,821.548462 
	C227.368790,822.760742 228.473892,827.629150 226.960938,829.974792 
	C226.065079,831.363831 224.327377,832.162231 223.942566,834.220093 
	C217.500748,831.077209 213.652985,826.977234 212.717682,819.033264 
	C211.186371,806.026855 209.608688,792.992737 208.231247,779.975525 
	C207.319916,771.362976 206.666397,762.658447 205.858154,754.013245 
	C205.078217,745.670898 204.246674,737.306946 203.208328,728.974060 
	C202.281067,721.532593 201.769028,713.990540 200.992844,706.500732 
	C200.144653,698.316101 199.125656,690.144043 198.210297,681.976440 
	C197.410660,674.841370 196.740204,667.660400 196.015808,660.498413 
	C194.954391,650.004639 193.996567,639.500305 193.008072,628.999268 
	C192.945862,628.338379 193.015045,627.666321 192.997803,627.000061 
	C192.552673,609.801147 191.114304,592.658997 190.163208,575.490967 
	C189.739334,567.839783 189.224136,560.170166 189.013748,552.499634 
	C188.282425,525.838501 187.304367,499.165314 188.107361,472.503235 
	C188.730057,451.828156 189.548370,431.150818 190.880386,410.492279 
	C191.928360,394.238831 194.688049,378.209656 196.143265,362.012878 
	C197.466461,347.285400 200.455902,332.709290 201.833206,317.984406 
	C202.693375,308.788544 204.002914,299.655518 205.166809,290.521271 
	C206.466553,280.321014 208.297836,270.146729 210.182678,260.034058 
	C211.951721,250.542679 213.415131,241.014801 215.067993,231.511826 
	C217.711517,216.312973 219.284515,200.915359 223.471664,185.992050 
	C225.884735,177.391754 227.281219,168.550797 229.881622,159.964157 
	C232.463150,151.439865 236.988327,144.131851 243.150772,138.155472 
	C248.079498,133.375534 255.065765,131.384705 261.517731,129.048981 
	C279.178131,122.655632 296.229034,114.817886 313.501648,107.503883 
	C332.827820,99.320320 352.229187,91.310493 371.474518,82.941391 
	C381.612030,78.532951 391.533936,73.568130 402.026917,70.080971 
	C412.315247,66.661819 419.665283,59.070335 427.318268,52.294724 
	C436.627777,44.052441 446.966919,39.322491 458.997375,37.482933 
	C471.451385,35.578602 483.913574,33.237431 496.501068,33.140598 
	C513.848022,33.007141 530.894348,36.028446 547.460388,41.128750 
	C552.607117,42.713322 556.935547,46.324448 561.014343,49.984001 
	C566.288757,54.716320 571.751526,59.240757 576.974548,64.027786 
	C581.584106,68.252571 587.632019,69.490074 593.055908,71.872780 
	C614.252319,81.184349 635.625916,90.098274 657.011963,98.971107 
	C676.622192,107.107178 696.446167,114.737190 715.952026,123.111725 
	C725.594177,127.251411 735.512878,130.800034 744.593079,136.347687 
	C750.013062,139.659088 752.993408,144.506607 755.953003,149.527725 
	C763.669800,162.619843 765.404419,177.613846 768.970032,192.007416 
	C772.510986,206.301208 773.733032,220.990036 776.093933,235.484711 
	C779.036072,253.548416 782.860046,271.467255 785.916687,289.514099 
	C787.398926,298.265778 787.901062,307.179291 789.026794,315.996582 
	C790.241638,325.511719 792.062073,334.966919 792.860901,344.511627 
	C793.393494,350.874878 794.105225,357.192657 795.011597,363.498322 
	C796.494324,373.813019 797.045105,384.228699 798.874329,394.522339 
	C800.186768,401.907562 800.956177,409.508575 800.853088,416.997986 
	C800.700989,428.037781 801.982056,438.984253 802.086121,449.999176 
	C802.183777,460.336334 803.406555,470.666595 803.408386,481.000031 
	C803.411438,498.166626 802.849426,515.333679 802.486267,532.499695 
	C802.415771,535.835083 801.876160,539.182190 802.052795,542.497192 
	C802.658875,553.869507 801.174805,565.163940 800.810242,576.493896 
	C800.424316,588.489685 799.513855,600.492310 798.829590,612.490295 
	C798.249939,622.655579 797.801208,632.849121 796.913757,642.992432 
	C795.962891,653.859253 794.232300,664.655518 793.034424,675.503784 
	C792.190002,683.150879 791.786621,690.846069 790.971985,698.497009 
	C789.746277,710.008484 788.189880,721.485657 787.039795,733.003967 
	C785.860107,744.819336 785.059082,756.672058 783.983521,768.498535 
	C782.891541,780.505310 782.067810,792.555786 780.408203,804.487244 
	C777.767578,823.471313 774.932617,842.421997 772.951294,861.494934 
	C771.892273,871.690125 770.336975,881.833801 768.997681,891.999695 
	C768.591980,895.079041 766.272827,895.474976 764.012512,894.946594 
	C747.322754,891.045288 730.749756,886.596130 713.970032,883.145813 
	C703.264282,880.944458 692.759094,877.864502 681.981201,876.115906 
	C678.966003,875.626709 678.449768,874.078125 679.072144,872.021851 
	C681.203186,864.981628 681.758972,857.664612 682.845947,850.476685 
	C683.951111,843.168091 685.481812,835.925354 686.283569,828.530762 
	C686.986572,822.046692 688.057129,815.475525 688.806152,808.977661 
	C690.056702,798.128601 692.059570,787.339233 692.825317,776.487671 
	C694.250244,756.293640 697.833496,736.266724 697.888123,715.999695 
	C697.920959,703.809753 698.730469,691.641418 699.326904,679.516052 
	C700.008606,665.655701 699.285522,651.817322 700.050659,638.002808 
	C701.250427,616.341858 701.505615,594.653381 700.818481,573.005737 
	C700.299744,556.665771 700.064026,540.338684 700.020142,523.999939 
	C700.017395,522.972900 699.937622,522.091614 699.000000,521.500000 
"/>
<path fill="none" opacity="1.000000" stroke="#000000" stroke-linecap="round" stroke-linejoin="round" stroke-width="3.000000"
	d="
M551.000000,44.000000 
	C551.000000,44.666668 550.829102,45.388832 551.024963,45.991898 
	C556.501282,62.854698 553.089966,79.973396 552.461670,96.998581 
	C552.190735,104.340370 551.499146,111.666611 551.000610,119.000038 
	C550.830627,121.499817 550.980408,124.071922 550.427551,126.483391 
	C549.568542,130.230530 550.544189,132.975540 552.899841,136.076080 
	C562.638672,148.894638 572.194824,161.863235 581.443665,175.039536 
	C590.205688,187.522293 598.377930,200.418457 607.102295,212.928680 
	C608.861145,215.450806 608.913818,217.237946 608.088074,220.026077 
	C599.611084,248.650208 591.465088,277.372559 582.949158,305.984863 
	C578.062988,322.401672 572.394958,338.586670 567.556641,355.016693 
	C557.501099,389.162811 545.759155,422.753174 534.446594,456.482086 
	C519.329346,501.554565 503.854004,546.507080 488.398468,591.465088 
	C487.942993,592.790039 488.931305,594.703430 487.000000,595.500000 
"/>
<path fill="none" opacity="1.000000" stroke="#000000" stroke-linecap="round" stroke-linejoin="round" stroke-width="3.000000"
	d="
M441.000000,135.000000 
	C443.009369,141.515259 442.885498,148.348434 443.948700,155.008194 
	C445.486786,164.642258 446.107544,174.396744 447.900146,184.018600 
	C449.092896,190.420593 449.217346,197.014496 450.027069,203.496613 
	C451.256958,213.342880 453.042908,223.134354 453.891266,233.009338 
	C454.695801,242.374344 455.973907,251.669403 456.985840,261.001526 
	C458.127167,271.527069 459.542572,282.016449 460.863159,292.517212 
	C462.608795,306.397797 465.008240,320.165527 466.989868,334.001434 
	C468.474243,344.365112 470.077057,354.701630 471.895081,365.018494 
	C474.319672,378.777008 475.744324,392.709869 478.073090,406.487640 
	C480.328674,419.832581 482.093597,433.254425 484.877808,446.525635 
	C486.842957,455.893097 487.557312,465.516998 489.030182,474.995300 
	C490.561523,484.849701 492.290009,494.674530 494.072662,504.486786 
	C494.235901,505.385315 494.049500,507.193726 496.000000,507.000000 
"/>
<path fill="none" opacity="1.000000" stroke="#000000" stroke-linecap="round" stroke-linejoin="round" stroke-width="3.000000"
	d="
M437.500000,46.000000 
	C438.917694,49.000000 437.542664,52.036541 437.387054,54.994061 
	C436.390961,73.929787 438.452057,92.693291 439.905762,111.507278 
	C440.329529,116.991592 440.124634,122.528740 440.985626,128.002258 
	C441.599365,131.903839 438.910614,133.925720 436.649506,136.625229 
	C431.827332,142.382416 427.876099,148.863937 423.489929,154.992813 
	C417.029022,164.020767 409.871124,172.621506 404.166321,182.100098 
	C397.686890,192.865662 389.838501,202.672714 383.408447,213.445358 
	C382.279663,215.336441 382.221283,216.336731 382.838501,218.545135 
	C390.179474,244.810623 398.013885,270.924133 405.810303,297.056580 
	C410.696045,313.432831 416.037872,329.666016 420.806061,346.056427 
	C426.007477,363.936157 431.394012,381.767365 437.154022,399.449829 
	C448.122925,433.122833 460.053162,466.481903 471.475433,500.008392 
	C476.455261,514.625183 481.148560,529.339355 486.022705,543.992432 
	C486.638916,545.845032 486.703369,548.111328 489.000000,549.000000 
"/>
<path fill="none" opacity="1.000000" stroke="#000000" stroke-linecap="round" stroke-linejoin="round" stroke-width="3.000000"
	d="
M550.500000,135.000000 
	C547.896362,141.415192 548.056885,148.336670 547.131531,155.018219 
	C545.334229,167.996841 543.720825,181.008942 542.105286,194.013077 
	C538.756470,220.969742 536.249817,248.030853 532.919861,274.990112 
	C530.319946,296.039520 527.158691,317.024200 523.960571,337.993988 
	C519.788208,365.351868 515.364685,392.671692 510.987640,419.998016 
	C508.556488,435.175690 505.884491,450.315491 503.536896,465.505707 
	C501.686737,477.477356 501.229858,489.776550 498.200592,501.422119 
	C495.179810,513.034912 495.188507,524.953796 492.488037,536.497192 
	C490.137787,546.543396 489.384216,556.816406 487.879578,566.982178 
	C486.644958,575.324219 486.148956,583.791565 484.046570,592.011902 
	C483.592407,593.787659 484.485657,595.489624 485.514587,596.989990 
	C485.567932,597.067688 485.868256,597.059265 485.992004,596.986450 
	C486.188629,596.870605 486.333344,596.666687 486.500000,596.500000 
"/>
<path fill="none" opacity="1.000000" stroke="#000000" stroke-linecap="round" stroke-linejoin="round" stroke-width="3.000000"
	d="
M283.500000,967.000000 
	C283.333313,968.333313 283.013947,969.667725 283.022919,970.999817 
	C283.156433,990.833374 282.996643,1010.677368 283.624420,1030.496094 
	C284.010132,1042.671753 283.695740,1054.835815 284.010040,1066.999756 
	C284.643036,1091.500610 284.821136,1116.028931 286.205688,1140.488403 
	C286.951691,1153.667236 286.807922,1166.837769 287.378998,1180.005249 
	C288.332336,1201.985718 288.886169,1223.987183 289.158905,1245.998047 
	C289.301300,1257.488525 290.069733,1268.988281 290.000000,1280.500000 
"/>
<path fill="none" opacity="1.000000" stroke="#000000" stroke-linecap="round" stroke-linejoin="round" stroke-width="3.000000"
	d="
M705.500000,970.500000 
	C706.719177,976.166687 705.557129,981.832397 705.528931,987.500122 
	C705.309875,1031.499878 705.770386,1075.512939 704.831360,1119.496460 
	C703.877625,1164.169067 704.393066,1208.834351 703.880737,1253.498657 
	C703.777588,1262.494019 703.662354,1271.499878 703.500000,1280.500000 
"/>
<path fill="none" opacity="1.000000" stroke="#000000" stroke-linecap="round" stroke-linejoin="round" stroke-width="3.000000"
	d="
M246.500000,137.000000 
	C249.506577,140.172745 248.120346,144.412109 248.752747,148.043060 
	C250.472656,157.917679 250.858658,168.016739 252.040375,177.995224 
	C253.187775,187.683914 255.204025,197.297577 255.850250,207.009964 
	C256.508392,216.901871 258.238556,226.637970 259.098907,236.491364 
	C259.772064,244.201126 261.371948,251.827713 262.489563,259.501526 
	C263.702240,267.828156 264.795654,276.172150 266.009705,284.498596 
	C267.468628,294.504578 269.009552,304.498596 270.497345,314.500397 
	C272.009399,324.665253 273.488617,334.835052 275.003448,344.999481 
	C276.320251,353.835297 277.255341,362.754944 279.126801,371.472778 
	C280.696198,378.783447 281.508667,386.191956 282.927979,393.513947 
	C284.726013,402.789551 286.066315,412.156647 287.478821,421.503204 
	C288.584656,428.820557 289.499969,436.166656 290.499969,443.500000 
"/>
<path fill="none" opacity="1.000000" stroke="#000000" stroke-linecap="round" stroke-linejoin="round" stroke-width="3.000000"
	d="
M744.500000,137.000000 
	C742.038879,141.198563 742.854797,146.042038 742.192566,150.528427 
	C740.310242,163.280716 739.487915,176.185104 737.960144,188.995239 
	C736.128967,204.348724 733.987061,219.664993 732.004639,235.000595 
	C730.647583,245.497543 729.476807,256.020721 727.964661,266.494904 
	C725.940613,280.515472 723.618530,294.492767 721.514343,308.502136 
	C719.613403,321.158661 717.932922,333.848785 715.972717,346.495758 
	C713.928894,359.681458 711.653809,372.831238 709.504395,386.000732 
	C707.981812,395.330383 706.469543,404.661896 705.010376,414.001617 
	C703.969727,420.661865 702.166321,427.206940 701.937683,433.997894 
	C701.931519,434.181213 701.000000,434.333374 700.500000,434.500031 
"/>
<path fill="none" opacity="1.000000" stroke="#000000" stroke-linecap="round" stroke-linejoin="round" stroke-width="3.000000"
	d="
M495.500000,847.000000 
	C499.037598,851.011719 498.798706,856.294312 499.896240,861.024048 
	C506.838074,890.939575 517.270508,919.687805 531.291199,946.849670 
	C540.789490,965.250488 556.944641,977.247131 577.539124,981.824036 
	C583.478149,983.143982 589.912170,981.435059 595.961487,980.688049 
	C601.463318,980.008667 607.024658,979.953613 612.531128,979.240051 
	C625.935608,977.502991 639.522766,977.234741 652.992920,975.927063 
	C664.154785,974.843323 675.334290,973.961548 686.485046,972.850220 
	C694.219666,972.079468 702.080200,971.261658 710.055420,968.293152 
	C709.327393,958.666748 711.072021,948.836243 709.106506,938.978760 
	C708.435303,935.612610 709.000000,932.000000 709.000000,928.500000 
	C709.000000,915.666687 708.913086,902.832153 709.082275,890.001099 
	C709.111694,887.766968 706.993713,885.795349 708.500000,883.500000 
"/>
<path fill="none" opacity="1.000000" stroke="#000000" stroke-linecap="round" stroke-linejoin="round" stroke-width="3.000000"
	d="
M485.000000,597.500000 
	C483.445038,605.275513 481.792328,613.034363 481.488892,620.999573 
	C481.393555,623.502319 480.985840,626.003357 481.031769,628.499390 
	C481.216187,638.520691 478.900604,648.504944 480.085358,658.489868 
	C481.664795,671.801331 480.074310,685.215698 481.908203,698.512634 
	C482.494690,702.765076 481.854340,707.172485 482.026855,711.498901 
	C482.579651,725.362244 483.293762,739.208740 484.929779,753.008301 
	C485.971741,761.797119 485.841583,770.739624 487.137512,779.479614 
	C488.447571,788.314819 489.070618,797.231201 490.857849,806.028870 
	C492.523285,814.226990 492.985443,822.668457 494.009979,830.998779 
	C494.277466,833.173584 494.566620,835.354370 495.017639,837.496277 
	C496.781616,845.873291 492.379089,853.174438 491.044586,861.007568 
	C487.126373,884.006714 478.410004,905.449402 469.994812,926.997986 
	C466.287445,936.491516 462.563934,946.195984 455.860870,953.878601 
	C445.557495,965.687622 433.794800,976.288208 417.930817,979.676025 
	C412.872986,980.756104 406.820923,980.770203 401.547852,979.752197 
	C395.682495,978.619812 389.821167,979.136047 383.963959,978.233948 
	C374.095398,976.713928 363.967773,976.973511 354.007660,975.927185 
	C339.521271,974.405334 324.876984,973.919739 310.558655,971.632751 
	C301.389679,970.168274 291.678497,970.237427 283.000000,966.000000 
"/>
<path fill="none" opacity="1.000000" stroke="#000000" stroke-linecap="round" stroke-linejoin="round" stroke-width="3.000000"
	d="
M686.000000,345.000000 
	C686.836426,341.886292 687.344421,338.706268 686.969238,335.503601 
	C686.261597,329.463898 688.479065,323.531830 687.917786,317.477570 
	C683.263489,315.920135 679.107910,317.791473 675.018433,318.189606 
	C663.465698,319.314178 651.994507,321.296417 640.501587,323.010620 
	C629.660828,324.627563 618.874878,326.750580 607.983582,327.835114 
	C601.965454,328.434418 596.058716,329.921143 589.999756,329.969391 
	C587.502808,329.989288 585.840271,330.808350 586.028442,333.498016 
	C586.556580,341.045654 584.793884,348.473480 584.981262,356.000458 
	C585.051758,358.835388 585.232727,359.668762 589.028748,359.282043 
	C597.558350,358.413086 605.948425,356.649017 614.490906,355.897003 
	C622.200562,355.218262 629.827698,353.627991 637.501526,352.510406 
	C645.828125,351.297729 654.170532,350.193420 662.498901,348.992249 
	C670.337402,347.861725 678.166687,346.666656 686.000000,345.499969 
"/>
<path fill="none" opacity="1.000000" stroke="#000000" stroke-linecap="round" stroke-linejoin="round" stroke-width="3.000000"
	d="
M291.500000,452.500000 
	C291.333313,489.000000 291.601501,525.509644 290.794922,561.995483 
	C290.452271,577.496033 289.584839,593.016846 290.142090,608.494873 
	C290.874329,628.833069 290.137329,649.210205 291.320496,669.481323 
	C292.000702,681.135803 291.542725,692.843567 293.107758,704.552429 
	C294.165802,712.468018 293.560822,720.841797 294.018127,728.998962 
	C294.779419,742.577393 296.737579,756.039673 298.113068,769.539429 
	C299.093506,779.162109 300.340790,788.815979 301.129333,798.489441 
	C302.083923,810.200623 303.855957,821.854187 305.541046,833.494080 
	C307.185699,844.854675 309.205719,856.160645 310.967438,867.505066 
	C311.324707,869.805908 313.486786,872.012878 310.338531,875.124329 
	C282.218781,881.398499 252.859390,887.949280 223.500015,894.500061 
"/>
<path fill="none" opacity="1.000000" stroke="#000000" stroke-linecap="round" stroke-linejoin="round" stroke-width="4.000000"
	d="
M495.000000,923.000000 
	C496.113831,932.305481 496.095490,941.656433 495.863739,950.996643 
	C495.841919,951.875793 495.543121,953.010437 495.530182,954.000366 
	C495.320831,969.999817 495.635040,986.022461 494.869171,1001.993713 
	C494.093170,1018.176453 494.700500,1034.346802 494.772522,1050.498779 
	C494.833466,1064.156494 493.772095,1077.828369 494.884735,1091.509399 
	C495.395325,1097.787720 494.666687,1104.166626 494.500000,1110.500000 
"/>
<path fill="none" opacity="1.000000" stroke="#000000" stroke-linecap="round" stroke-linejoin="round" stroke-width="7.000000"
	d="
M495.000000,1111.500000 
	C497.603271,1113.565430 498.097992,1116.291382 498.056854,1119.500732 
	C497.853851,1135.341187 498.656921,1151.181396 499.224335,1166.991943 
	C500.139557,1192.495117 501.582184,1217.988403 502.529480,1243.498901 
	C502.647339,1246.673584 503.166656,1249.833374 503.499969,1253.000000 
"/>
<path fill="none" opacity="1.000000" stroke="#000000" stroke-linecap="round" stroke-linejoin="round" stroke-width="3.000000"
	d="
M600.500000,710.500000 
	C601.333374,721.833313 601.984985,733.184448 603.090759,744.491150 
	C603.524536,748.926819 603.004272,753.702087 606.463440,757.533020 
	C610.787598,762.321838 616.668640,761.714966 622.002380,761.770996 
	C625.752686,761.810364 629.641663,761.110779 633.499390,760.982300 
	C652.334045,760.354797 671.166687,759.666687 690.000000,759.000000 
"/>
<path fill="none" opacity="1.000000" stroke="#000000" stroke-linecap="round" stroke-linejoin="round" stroke-width="3.000000"
	d="
M582.000000,68.500000 
	C582.067871,74.464417 584.525818,79.925476 586.166931,85.450409 
	C592.935059,108.235474 600.349243,130.828323 607.485046,153.504715 
	C608.735291,157.477768 609.789307,161.512573 611.107605,166.126556 
	C603.564087,171.798141 595.782043,177.649063 588.000000,183.500000 
"/>
<path fill="none" opacity="1.000000" stroke="#000000" stroke-linecap="round" stroke-linejoin="round" stroke-width="3.000000"
	d="
M294.000000,705.500000 
	C300.333344,704.429688 306.697723,705.143005 312.991180,705.617004 
	C319.175690,706.082764 325.341156,705.668884 331.498749,706.021667 
	C347.835754,706.957825 364.166260,708.006714 380.500336,708.994446 
	C383.831512,709.195923 387.204193,708.582703 390.736908,709.540710 
	C389.659119,723.012451 388.790619,736.527710 387.420319,749.991882 
	C386.607056,757.983032 382.641266,760.887390 374.500366,761.021362 
	C351.467285,761.400452 328.520599,758.927429 305.500244,759.046143 
	C303.626648,759.055786 301.228180,757.781128 300.000000,760.500000 
"/>
<path fill="none" opacity="1.000000" stroke="#000000" stroke-linecap="round" stroke-linejoin="round" stroke-width="3.000000"
	d="
M409.000000,68.000000 
	C408.772369,73.452003 406.359894,78.340813 404.987244,83.496605 
	C397.807465,110.464409 387.615601,136.511398 380.489044,163.497101 
	C380.396851,163.846252 380.139862,164.151871 379.765839,164.828857 
	C386.508514,171.739349 394.841187,176.698517 402.500000,182.500000 
"/>
<path fill="none" opacity="1.000000" stroke="#000000" stroke-linecap="round" stroke-linejoin="round" stroke-width="3.000000"
	d="
M553.000000,64.500000 
	C545.666687,62.500000 538.441650,59.809856 530.978271,58.638359 
	C513.449585,55.886936 495.901306,53.827255 477.978149,55.801510 
	C465.106445,57.219337 452.603241,59.466660 440.489594,63.972008 
	C439.903961,64.189835 439.166656,64.000000 438.500000,64.000000 
"/>
<path fill="none" opacity="1.000000" stroke="#000000" stroke-linecap="round" stroke-linejoin="round" stroke-width="2.000000"
	d="
M390.500000,981.500000 
	C390.500000,1015.500000 390.500000,1049.500000 390.500000,1083.500000 
"/>
<path fill="none" opacity="1.000000" stroke="#000000" stroke-linecap="round" stroke-linejoin="round" stroke-width="3.000000"
	d="
M494.000000,1111.500000 
	C492.484711,1112.825684 491.529602,1114.457031 491.509674,1116.500122 
	C491.447662,1122.848877 491.158569,1129.166626 490.678131,1135.513428 
	C489.999908,1144.473511 489.353668,1153.593628 489.844452,1162.480957 
	C490.321045,1171.112305 489.372253,1179.513062 488.937439,1187.996826 
	C488.159576,1203.174805 486.915253,1218.328491 486.043884,1233.502563 
	C485.718445,1239.170044 485.352020,1244.872681 485.228027,1250.505005 
	C485.007568,1260.517944 483.321106,1270.466309 484.000000,1280.500000 
"/>
<path fill="none" opacity="1.000000" stroke="#000000" stroke-linecap="round" stroke-linejoin="round" stroke-width="3.000000"
	d="
M697.000000,705.000000 
	C693.571838,706.087830 690.032959,705.932861 686.500488,706.020020 
	C675.165833,706.299622 663.794983,706.194397 652.508972,707.110596 
	C635.521790,708.489624 618.439453,707.971191 601.500000,710.000000 
"/>
<path fill="none" opacity="1.000000" stroke="#000000" stroke-linecap="round" stroke-linejoin="round" stroke-width="3.000000"
	d="
M389.000000,716.500000 
	C381.166656,716.000000 373.339966,715.304688 365.498688,715.039185 
	C347.163391,714.418274 328.861633,713.084534 310.503723,712.777222 
	C305.021027,712.685364 299.458221,714.045044 294.000000,712.500000 
"/>
<path fill="none" opacity="1.000000" stroke="#000000" stroke-linecap="round" stroke-linejoin="round" stroke-width="3.000000"
	d="
M696.500000,713.000000 
	C684.978149,712.579041 673.488708,713.032593 661.996033,713.950256 
	C654.517090,714.547424 647.000793,714.686096 639.499817,714.995667 
	C627.000488,715.511597 614.500000,716.000000 602.000000,716.500000 
"/>
<path fill="none" opacity="1.000000" stroke="#000000" stroke-linecap="round" stroke-linejoin="round" stroke-width="4.000000"
	d="
M282.500000,882.500000 
	C283.738525,884.666687 282.466736,886.832947 282.470673,889.000061 
	C282.516510,914.166687 282.497101,939.333313 282.520844,964.500000 
	C282.521301,965.000122 282.833344,965.500000 283.000000,966.000000 
"/>
<path fill="none" opacity="1.000000" stroke="#000000" stroke-linecap="round" stroke-linejoin="round" stroke-width="4.000000"
	d="
M699.500000,444.500000 
	C698.410095,469.823364 698.424561,495.161285 698.500000,520.500000 
"/>
<path fill="none" opacity="1.000000" stroke="#000000" stroke-linecap="round" stroke-linejoin="round" stroke-width="3.000000"
	d="
M215.000000,829.000000 
	C213.988983,835.616211 216.026245,842.006470 216.623001,848.488647 
	C217.685425,860.028931 219.127533,871.568542 221.223099,882.958984 
	C221.866104,886.454163 220.912827,890.270569 223.000000,893.500000 
"/>
<path fill="none" opacity="1.000000" stroke="#000000" stroke-linecap="round" stroke-linejoin="round" stroke-width="3.000000"
	d="
M506.500000,621.000000 
	C505.402618,619.512573 506.394287,617.576538 505.067932,615.944763 
	C501.675049,611.770508 498.112396,610.315186 493.999939,611.999878 
	C489.768188,613.733521 487.490601,617.719360 488.000000,622.500000 
	C488.409576,626.343628 492.135956,630.215149 496.002106,630.468018 
	C501.741150,630.843323 504.883026,627.692749 505.998596,623.499634 
	C506.175262,622.835632 506.333344,622.166687 506.500000,621.500000 
"/>
<path fill="none" opacity="1.000000" stroke="#000000" stroke-linecap="round" stroke-linejoin="round" stroke-width="2.000000"
	d="
M389.500000,1087.500000 
	C389.500000,1098.500000 389.500000,1109.500000 389.500000,1120.500000 
"/>
<path fill="none" opacity="1.000000" stroke="#000000" stroke-linecap="round" stroke-linejoin="round" stroke-width="2.000000"
	d="
M604.500000,1104.500000 
	C604.500000,1115.166626 604.500000,1125.833374 604.500000,1136.500000 
"/>
<path fill="none" opacity="1.000000" stroke="#000000" stroke-linecap="round" stroke-linejoin="round" stroke-width="2.000000"
	d="
M388.500000,1125.500000 
	C388.500000,1136.166626 388.500000,1146.833374 388.500000,1157.500000 
"/>
<path fill="none" opacity="1.000000" stroke="#000000" stroke-linecap="round" stroke-linejoin="round" stroke-width="2.000000"
	d="
M608.500000,1249.500000 
	C608.500000,1259.833374 608.500000,1270.166626 608.500000,1280.500000 
"/>
<path fill="none" opacity="1.000000" stroke="#000000" stroke-linecap="round" stroke-linejoin="round" stroke-width="2.000000"
	d="
M603.500000,1070.500000 
	C603.500000,1080.833374 603.500000,1091.166626 603.500000,1101.500000 
"/>
<path fill="none" opacity="1.000000" stroke="#000000" stroke-linecap="round" stroke-linejoin="round" stroke-width="2.000000"
	d="
M385.500000,1241.500000 
	C385.500000,1251.833374 385.500000,1262.166626 385.500000,1272.500000 
"/>
<path fill="none" opacity="1.000000" stroke="#000000" stroke-linecap="round" stroke-linejoin="round" stroke-width="2.000000"
	d="
M605.500000,1141.500000 
	C605.500000,1151.500000 605.500000,1161.500000 605.500000,1171.500000 
"/>
<path fill="none" opacity="1.000000" stroke="#000000" stroke-linecap="round" stroke-linejoin="round" stroke-width="2.000000"
	d="
M607.500000,1214.500000 
	C607.500000,1224.500000 607.500000,1234.500000 607.500000,1244.500000 
"/>
<path fill="none" opacity="1.000000" stroke="#000000" stroke-linecap="round" stroke-linejoin="round" stroke-width="3.000000"
	d="
M759.000000,854.000000 
	C760.549561,852.897034 761.160400,850.587219 763.700195,850.709473 
	C765.747070,851.107788 767.412354,852.772522 768.396057,854.557312 
	C770.131409,857.705933 768.594910,860.612671 765.942932,862.416077 
	C763.431702,864.123779 760.083313,862.907227 759.738098,860.466309 
	C759.105408,855.992493 756.256958,854.280823 753.000000,852.500000 
"/>
<path fill="none" opacity="1.000000" stroke="#000000" stroke-linecap="round" stroke-linejoin="round" stroke-width="2.000000"
	d="
M386.500000,1203.500000 
	C386.500000,1213.166626 386.500000,1222.833374 386.500000,1232.500000 
"/>
<path fill="none" opacity="1.000000" stroke="#000000" stroke-linecap="round" stroke-linejoin="round" stroke-width="2.000000"
	d="
M606.500000,1180.500000 
	C606.500000,1189.833374 606.500000,1199.166626 606.500000,1208.500000 
"/>
<path fill="none" opacity="1.000000" stroke="#000000" stroke-linecap="round" stroke-linejoin="round" stroke-width="2.000000"
	d="
M387.500000,1165.500000 
	C387.500000,1174.500000 387.500000,1183.500000 387.500000,1192.500000 
"/>
<path fill="none" opacity="1.000000" stroke="#000000" stroke-linecap="round" stroke-linejoin="round" stroke-width="3.000000"
	d="
M504.500000,1253.500000 
	C501.225250,1253.529297 502.504913,1256.065918 502.570374,1257.496826 
	C502.921387,1265.170166 503.500000,1272.833374 504.000000,1280.500000 
"/>
<path fill="none" opacity="1.000000" stroke="#000000" stroke-linecap="round" stroke-linejoin="round" stroke-width="3.000000"
	d="
M481.000000,706.500000 
	C474.561462,708.158203 472.000000,710.862000 472.000000,716.000000 
	C472.000000,720.521057 475.473572,723.994629 482.000000,726.000000 
"/>
<path fill="none" opacity="1.000000" stroke="#000000" stroke-linecap="round" stroke-linejoin="round" stroke-width="3.000000"
	d="
M226.500000,850.500000 
	C221.478928,854.962585 220.908371,856.964294 223.485703,860.510376 
	C225.049484,862.661865 226.946686,863.829834 229.480179,862.463257 
	C231.938019,861.137451 233.561661,855.795227 231.941956,854.054016 
	C230.022568,851.990662 227.796402,850.146545 225.475739,848.534912 
	C218.363846,843.595764 218.069214,841.953735 223.500000,835.000000 
	C226.605682,835.298584 228.489716,837.497498 230.500000,839.500000 
"/>
<path fill="none" opacity="1.000000" stroke="#000000" stroke-linecap="round" stroke-linejoin="round" stroke-width="3.000000"
	d="
M579.000000,214.000000 
	C583.241516,219.901550 588.453369,225.082275 592.000000,231.500000 
"/>
<path fill="none" opacity="1.000000" stroke="#000000" stroke-linecap="round" stroke-linejoin="round" stroke-width="3.000000"
	d="
M511.000000,715.000000 
	C505.166656,715.000000 499.333344,715.000000 493.500000,715.000000 
"/>
<path fill="none" opacity="1.000000" stroke="#000000" stroke-linecap="round" stroke-linejoin="round" stroke-width="3.000000"
	d="
M758.000000,822.500000 
	C758.164612,823.669373 758.878784,824.045593 760.000366,824.011414 
	C762.745361,823.927551 763.740051,825.212219 763.568787,828.004211 
	C763.405396,830.668701 765.830627,832.105835 767.250000,834.000000 
"/>
<path fill="none" opacity="1.000000" stroke="#000000" stroke-linecap="round" stroke-linejoin="round" stroke-width="3.000000"
	d="
M221.500000,820.500000 
	C221.150070,818.969055 222.018097,818.042603 222.969864,816.973206 
	C227.725189,811.630005 227.259659,809.019775 221.000000,805.000000 
	C213.635559,809.385864 213.635559,813.614197 221.000000,818.000000 
"/>
<path fill="none" opacity="1.000000" stroke="#000000" stroke-linecap="round" stroke-linejoin="round" stroke-width="2.000000"
	d="
M505.000000,1254.500000 
	C506.141815,1258.795776 505.183441,1263.172485 505.500000,1267.500000 
"/>
<path fill="none" opacity="1.000000" stroke="#000000" stroke-linecap="round" stroke-linejoin="round" stroke-width="2.000000"
	d="
M488.000000,1165.500000 
	C486.843994,1169.121704 487.819366,1172.840332 487.500000,1176.500000 
"/>
<path fill="none" opacity="1.000000" stroke="#000000" stroke-linecap="round" stroke-linejoin="round" stroke-width="4.000000"
	d="
M509.500000,502.000000 
	C506.000000,501.666656 502.500000,501.333344 499.000000,501.000000 
"/>
<path fill="none" opacity="1.000000" stroke="#000000" stroke-linecap="round" stroke-linejoin="round" stroke-width="3.000000"
	d="
M754.500000,838.000000 
	C758.468628,838.405640 761.598450,839.764648 761.481934,844.499573 
	C761.418335,847.084656 765.783203,847.358398 764.500000,850.500000 
"/>
<path fill="none" opacity="1.000000" stroke="#000000" stroke-linecap="round" stroke-linejoin="round" stroke-width="3.000000"
	d="
M758.500000,808.000000 
	C761.847290,808.438049 765.287354,808.612793 765.088806,813.503601 
	C765.039429,814.719910 766.354309,815.717041 767.479431,816.528503 
	C768.780151,817.466614 769.960266,818.603210 769.500000,820.500000 
"/>
<path fill="none" opacity="1.000000" stroke="#000000" stroke-linecap="round" stroke-linejoin="round" stroke-width="3.000000"
	d="
M764.000000,824.000000 
	C765.347168,822.636841 766.570190,821.114075 769.184448,820.950623 
	C774.805481,824.651489 775.801880,829.404602 770.994934,832.492126 
	C769.360352,833.541992 767.777039,834.949158 765.973511,835.392212 
	C763.421509,836.018921 762.300720,838.121826 760.500000,839.500000 
"/>
<path fill="none" opacity="1.000000" stroke="#000000" stroke-linecap="round" stroke-linejoin="round" stroke-width="3.000000"
	d="
M236.500000,838.000000 
	C233.152695,838.438049 229.721405,838.611877 229.940842,843.502625 
	C230.043961,845.801025 227.112671,846.445557 226.500000,848.500000 
"/>
<path fill="none" opacity="1.000000" stroke="#000000" stroke-linecap="round" stroke-linejoin="round" stroke-width="3.000000"
	d="
M507.000000,621.500000 
	C509.616364,622.471558 512.335327,621.801025 515.000000,622.000000 
"/>
<path fill="none" opacity="1.000000" stroke="#000000" stroke-linecap="round" stroke-linejoin="round" stroke-width="3.000000"
	d="
M767.000000,835.500000 
	C770.075378,837.295654 771.629211,839.843689 771.003662,843.500610 
	C770.424011,846.889343 767.960388,847.985779 765.000000,848.500000 
"/>
<path fill="none" opacity="1.000000" stroke="#000000" stroke-linecap="round" stroke-linejoin="round" stroke-width="3.000000"
	d="
M764.500000,809.500000 
	C766.775879,807.457825 768.635010,804.029846 772.478333,806.533264 
	C775.323547,808.386536 775.911926,812.007019 774.554749,815.024597 
	C773.605103,817.136108 771.659363,817.538269 770.000000,818.500000 
"/>
<path fill="none" opacity="1.000000" stroke="#000000" stroke-linecap="round" stroke-linejoin="round" stroke-width="3.000000"
	d="
M239.500000,852.500000 
	C237.333328,853.166687 235.166656,853.833313 233.000000,854.500000 
"/>
<path fill="none" opacity="1.000000" stroke="#000000" stroke-linecap="round" stroke-linejoin="round" stroke-width="3.000000"
	d="
M233.500000,823.000000 
	C231.666672,823.500000 229.833328,824.000000 228.000000,824.500000 
"/>
</svg>