<?xml version="1.0" standalone="no"?>
<!DOCTYPE svg PUBLIC "-//W3C//DTD SVG 20010904//EN"
 "http://www.w3.org/TR/2001/REC-SVG-20010904/DTD/svg10.dtd">
<svg version="1.0" xmlns="http://www.w3.org/2000/svg"
 width="300.000000pt" height="537.000000pt" viewBox="0 0 300.000000 537.000000"
 preserveAspectRatio="xMidYMid meet">
<metadata>
Created by potrace 1.10, written by Peter Selinger 2001-2011
</metadata>
<g transform="translate(0.000000,537.000000) scale(0.100000,-0.100000)"
fill="#000000" stroke="none">
<path d="M1401 5360 c-66 -14 -128 -48 -191 -104 -95 -85 -128 -103 -300 -161
-157 -54 -422 -155 -540 -208 l-55 -25 -37 -101 c-111 -298 -173 -624 -198
-1031 -5 -96 -17 -285 -25 -420 -30 -487 -36 -599 -43 -860 -4 -146 -8 -373
-7 -505 l0 -240 40 -13 c22 -7 98 -29 169 -47 71 -19 130 -36 131 -37 2 -2 -8
-63 -22 -137 -28 -153 -35 -137 74 -179 68 -25 72 -29 77 -62 3 -19 33 -303
67 -630 34 -327 63 -597 65 -599 16 -18 8 83 -49 626 -36 340 -64 619 -63 621
2 1 59 -14 127 -33 155 -45 251 -54 339 -31 135 35 179 127 196 408 6 94 9
105 21 90 12 -15 23 -7 122 95 l109 113 10 -28 c8 -20 22 -423 24 -672 0 -8
-5 -69 -11 -135 -16 -189 -27 -1045 -13 -1045 9 0 12 74 12 278 0 334 17 839
29 859 15 27 51 -343 87 -887 9 -140 18 -257 20 -259 15 -16 14 46 -5 326 -41
594 -71 860 -97 870 -11 4 -14 31 -14 114 0 97 2 109 18 109 64 0 112 82 112
190 l0 57 195 127 c108 69 198 126 202 126 3 0 3 -428 -1 -950 -6 -681 -5
-950 3 -950 8 0 11 251 12 868 0 477 0 908 0 957 l-2 90 146 94 c80 51 147 92
149 90 2 -2 16 -103 31 -224 34 -276 50 -363 82 -445 l26 -64 -6 -231 c-4
-126 -13 -320 -21 -430 -19 -251 -39 -715 -32 -723 3 -3 8 -3 10 -1 2 2 9 125
15 272 7 148 18 357 26 465 8 108 18 297 22 420 6 209 7 221 23 207 10 -9 34
-20 54 -26 45 -13 140 9 206 48 72 42 155 128 186 193 28 56 30 58 61 53 28
-5 33 -2 33 13 -1 219 -44 1419 -55 1524 -61 619 -91 870 -130 1105 -34 204
-84 388 -134 499 l-28 62 -208 98 c-115 54 -260 121 -323 147 -85 37 -148 73
-241 141 -172 125 -210 141 -336 144 -55 2 -120 -1 -144 -6z m300 -41 c79 -37
126 -90 143 -164 l7 -30 -43 41 c-51 50 -85 68 -156 83 -86 18 -232 11 -232
-11 0 -5 10 -6 23 -2 37 12 189 6 240 -10 50 -15 121 -63 150 -103 27 -35 37
-180 20 -268 -37 -182 -114 -360 -253 -582 -44 -70 -90 -152 -102 -180 -13
-29 -25 -53 -28 -53 -3 0 -16 28 -29 63 -13 34 -91 232 -173 439 l-149 377 11
78 c18 131 85 252 167 300 75 44 119 53 238 50 94 -2 118 -6 166 -28z m402
-279 c75 -52 136 -98 137 -101 0 -4 -67 -56 -107 -82 -6 -4 -63 16 -130 47
l-118 54 -12 109 c-7 59 -17 118 -23 131 -5 13 -10 25 -10 27 0 2 29 -17 64
-43 35 -26 125 -90 199 -142z m-953 97 c-17 -35 -33 -89 -36 -122 l-7 -60
-110 -53 c-74 -35 -114 -49 -121 -43 -7 6 -26 30 -44 55 l-32 44 47 35 c27 19
97 62 156 95 60 34 122 73 138 87 17 14 32 25 34 25 2 0 -9 -28 -25 -63z
m-240 -82 c-41 -24 -88 -56 -105 -70 -33 -27 -34 -22 22 -99 l33 -44 -95 -61
c-52 -33 -95 -67 -95 -73 0 -26 170 -319 312 -538 242 -374 279 -456 279 -618
0 -53 -14 -257 -30 -452 -31 -364 -46 -578 -55 -780 -17 -372 -39 -731 -51
-836 -21 -188 -67 -261 -182 -285 -113 -23 -286 11 -518 102 -102 40 -106 44
-102 68 3 14 14 72 23 129 20 111 17 109 90 91 25 -6 47 -9 50 -6 3 3 0 96 -7
205 -13 198 -11 236 17 399 l6 32 124 -6 123 -6 10 25 c5 13 12 95 16 180 l8
156 -42 -5 c-22 -3 -41 -2 -40 3 0 5 6 40 13 79 10 56 16 71 32 73 34 7 39 21
49 145 13 153 13 154 -28 149 l-32 -4 -23 308 c-21 283 -26 325 -35 313 -2 -2
7 -143 20 -313 13 -170 22 -310 20 -312 -2 -2 -30 -5 -62 -6 l-59 -3 -58 320
-57 320 0 325 c1 252 -3 350 -16 435 -16 112 -58 283 -95 389 -11 33 -20 62
-20 66 0 12 585 245 625 249 5 1 -24 -19 -65 -44z m1387 -74 c357 -168 345
-162 339 -185 -51 -179 -83 -412 -96 -704 -5 -125 -17 -280 -25 -343 -21 -163
-57 -351 -65 -342 -10 11 -175 458 -193 523 -9 30 -17 77 -19 104 l-3 49 115
19 c63 11 118 23 122 26 4 4 10 31 14 61 7 54 7 54 -17 47 -55 -15 -261 -47
-267 -41 -4 4 -9 46 -10 94 -3 77 0 99 28 182 17 52 51 132 76 178 36 66 43
86 32 92 -7 5 -50 28 -95 52 -46 23 -83 45 -83 48 0 3 27 25 60 49 33 24 60
46 60 50 0 3 -38 33 -85 65 -131 89 -127 89 112 -24z m-1147 -406 c39 -176 66
-353 79 -520 13 -162 20 -298 16 -293 -1 2 -27 50 -57 108 -30 58 -97 170
-150 250 -149 229 -221 346 -287 472 l-62 116 73 48 c40 26 132 78 203 115
l130 68 12 -112 c6 -62 25 -175 43 -252z m920 280 c80 -40 168 -85 195 -100
l50 -28 -56 -112 c-94 -189 -108 -295 -64 -485 14 -58 25 -115 25 -127 0 -38
48 -177 163 -478 l111 -290 7 -265 c3 -146 4 -386 0 -535 l-6 -270 -92 230
c-105 264 -172 459 -247 724 -65 225 -72 260 -86 426 -34 389 -69 650 -115
845 -55 232 -64 286 -67 417 -3 129 -2 133 17 127 11 -4 85 -39 165 -79z
m-777 -428 l165 -419 -21 -50 -20 -49 -54 53 c-111 108 -115 116 -130 252 -8
66 -25 173 -38 236 -13 63 -33 158 -43 210 -23 109 -36 197 -29 190 3 -3 79
-193 170 -423z m-919 268 c84 -288 89 -353 82 -1030 -3 -308 -11 -690 -17
-850 -13 -325 -8 -616 17 -968 9 -131 14 -240 12 -242 -4 -4 -251 57 -378 93
l-65 19 -3 139 c-5 206 16 897 38 1229 11 160 24 382 30 495 21 411 61 699
131 945 37 129 102 306 110 298 4 -4 23 -62 43 -128z m1537 -203 l33 -130
-222 -217 c-206 -201 -242 -244 -329 -381 -18 -29 31 115 73 214 44 104 112
228 184 337 91 140 206 409 211 498 1 12 5 -26 10 -85 4 -63 20 -159 40 -236z
m778 211 c82 -222 136 -527 186 -1043 9 -91 25 -239 35 -330 26 -222 38 -439
51 -915 6 -220 14 -481 18 -580 4 -99 7 -181 6 -182 -1 -2 -108 9 -237 24
l-236 27 5 965 c3 756 7 992 19 1086 7 66 18 221 24 345 10 230 27 383 60 547
24 115 32 145 36 141 1 -2 16 -40 33 -85z m-723 -455 c24 -122 51 -349 79
-638 32 -336 55 -502 99 -686 l33 -142 -41 -12 c-23 -6 -48 -13 -56 -16 -13
-3 -15 16 -13 134 1 104 -1 124 -7 82 -4 -30 -8 -93 -9 -140 l-1 -85 -103 -28
c-56 -15 -126 -35 -155 -43 l-54 -16 7 -37 c4 -20 8 -37 10 -39 1 -2 69 17
151 41 l149 44 23 -311 c12 -171 20 -316 18 -322 -2 -6 -120 -87 -262 -179
l-258 -168 -39 44 c-66 74 -125 173 -151 251 -52 154 -61 273 -61 843 0 615
10 772 54 870 36 79 95 165 171 252 69 79 391 385 398 379 2 -3 10 -38 18 -78z
m504 -67 l0 -40 -52 -10 c-83 -16 -171 -31 -184 -31 -6 0 -16 17 -21 39 l-10
39 66 6 c36 4 93 13 126 21 33 7 63 13 68 14 4 1 7 -17 7 -38z m-1067 -311
c-3 -8 -21 -66 -39 -129 -49 -166 -59 -318 -59 -911 0 -501 5 -602 41 -778 8
-41 22 -89 31 -107 15 -31 15 -35 -5 -59 -33 -43 -177 -196 -183 -196 -3 0
-11 11 -17 25 -9 19 -8 78 3 243 8 119 19 323 25 452 6 129 27 417 46 640 35
423 40 547 25 627 -6 26 -12 122 -14 212 l-4 164 78 -84 c51 -54 76 -89 72
-99z m-875 -603 l49 -277 -29 -128 c-32 -146 -34 -174 -14 -166 17 6 13 -43
-10 -141 -30 -126 -61 -324 -52 -333 5 -5 5 -35 0 -73 l-8 -64 -9 80 c-4 44
-5 217 -1 385 3 168 9 467 13 665 4 198 8 353 10 345 2 -8 25 -140 51 -293z
m1970 71 l-3 -63 -15 44 c-14 39 -14 51 0 120 l15 76 3 -57 c2 -32 2 -86 0
-120z m-262 -530 c57 -176 146 -409 212 -556 l49 -110 -5 -226 c-3 -124 -3
-226 -1 -227 2 0 49 -6 104 -12 l99 -12 58 -85 c31 -47 57 -90 57 -96 1 -15
-78 -70 -146 -101 -70 -33 -146 -36 -187 -9 -38 24 -82 123 -100 226 -9 47
-32 211 -51 365 -54 428 -80 580 -188 1085 -43 198 -39 224 8 58 24 -86 65
-221 91 -300z m-1457 56 c-6 -66 -16 -122 -21 -125 -6 -4 -42 -10 -82 -13 -39
-4 -87 -10 -107 -13 l-36 -5 26 123 26 124 100 16 c55 9 101 15 103 14 1 -1
-3 -56 -9 -121z m1395 -113 c-15 -14 -406 -123 -413 -115 -3 4 1 9 9 12 40 16
406 118 409 115 3 -2 0 -7 -5 -12z m16 -19 c0 -10 -420 -135 -428 -128 -3 3
-3 8 -1 10 4 3 407 123 422 125 4 1 7 -3 7 -7z m-1484 -49 c-3 -16 -8 -49 -12
-75 l-6 -48 -70 0 -69 0 7 63 c3 34 9 65 13 69 7 8 50 14 104 17 37 1 38 0 33
-26z m1528 -213 c19 -118 38 -240 41 -270 l7 -55 -82 -53 c-46 -29 -83 -52
-85 -50 -5 8 -44 622 -39 627 3 3 28 13 57 21 36 11 54 13 59 6 3 -6 22 -108
42 -226z m-1475 65 c13 -14 -7 -287 -22 -302 -9 -9 -42 -10 -129 -4 -65 4
-120 10 -123 12 -2 3 7 65 20 139 14 73 25 137 25 142 0 4 44 9 98 10 l97 2
-90 6 -90 7 102 -1 c56 -1 107 -6 112 -11z m765 -816 l49 -53 -6 -67 c-7 -86
-28 -134 -66 -153 -62 -33 -61 -36 -61 182 0 191 1 196 18 171 9 -15 39 -51
66 -80z m1334 -74 c28 -4 52 -10 52 -14 0 -17 -78 -136 -86 -131 -10 6 -104
147 -104 156 0 4 19 4 43 1 23 -3 66 -9 95 -12z"/>
<path d="M1126 3588 c-39 -55 3 -152 44 -103 26 31 10 125 -21 125 -4 0 -15
-10 -23 -22z m40 -23 c8 -33 -3 -77 -19 -72 -13 4 -22 60 -13 83 8 22 25 16
32 -11z"/>
<path d="M1080 3050 c-24 -24 -25 -48 -4 -78 20 -30 59 -29 80 3 17 26 13 55
-12 80 -21 20 -40 19 -64 -5z m58 -12 c30 -30 -3 -87 -39 -68 -32 17 -19 80
16 80 6 0 16 -5 23 -12z"/>
<path d="M1069 2544 c-7 -9 -14 -33 -14 -54 0 -21 7 -45 14 -54 32 -38 91 -3
91 54 0 57 -59 92 -91 54z m65 -20 c15 -39 0 -94 -25 -94 -32 0 -52 73 -27 98
17 17 45 15 52 -4z"/>
<path d="M2100 4714 c0 -11 79 -54 98 -54 25 0 7 22 -28 35 -19 7 -43 16 -52
20 -10 4 -18 3 -18 -1z"/>
<path d="M2285 3631 c-6 -5 -27 -14 -47 -21 -21 -6 -38 -16 -38 -22 0 -6 8 -7
18 -3 9 4 32 9 50 12 18 3 35 10 38 15 9 14 -10 30 -21 19z"/>
<path d="M2421 3149 c-13 -11 -31 -24 -40 -29 -9 -5 -13 -12 -9 -15 4 -4 17 0
30 9 12 9 30 16 40 16 11 0 18 8 18 20 0 25 -8 25 -39 -1z"/>
<path d="M41 2076 c-7 -8 -11 -25 -9 -38 2 -18 9 -23 32 -23 36 0 56 27 40 53
-14 22 -48 27 -63 8z m49 -26 c0 -24 -26 -38 -42 -22 -16 16 -2 42 22 42 13 0
20 -7 20 -20z"/>
<path d="M48 1979 c-22 -12 -23 -52 -3 -69 12 -10 21 -10 40 -2 29 13 33 43 9
66 -18 19 -23 19 -46 5z m40 -37 c3 -16 -2 -22 -17 -22 -24 0 -35 15 -27 36 9
23 40 13 44 -14z"/>
<path d="M34 1866 c-3 -8 -4 -25 -2 -38 2 -18 9 -23 32 -23 36 0 56 27 40 53
-14 22 -62 28 -70 8z m54 -20 c5 -24 -10 -38 -31 -30 -20 7 -22 25 -5 42 16
16 32 10 36 -12z"/>
<path d="M2892 2028 c-30 -30 -1 -75 43 -64 22 6 26 11 23 39 -2 26 -8 33 -28
35 -14 2 -31 -3 -38 -10z m54 -13 c8 -20 -13 -45 -32 -38 -14 5 -19 34 -7 46
11 12 33 7 39 -8z"/>
<path d="M2896 1924 c-29 -28 -12 -64 30 -64 33 0 49 25 36 55 -13 29 -43 33
-66 9z m54 -24 c0 -24 -26 -38 -42 -22 -16 16 -2 42 22 42 13 0 20 -7 20 -20z"/>
<path d="M2897 1823 c-11 -11 -8 -48 5 -61 30 -30 75 0 64 43 -5 19 -13 25
-35 25 -15 0 -31 -3 -34 -7z m57 -19 c8 -21 -1 -34 -24 -34 -10 0 -21 4 -24 9
-10 16 5 41 24 41 10 0 21 -7 24 -16z"/>
<path d="M1436 3754 c-19 -18 -20 -38 -6 -65 15 -26 66 -26 80 1 6 11 17 20
25 20 8 0 15 5 15 10 0 6 -7 10 -15 10 -8 0 -19 9 -25 20 -13 24 -52 26 -74 4z
m52 -6 c28 -28 -3 -83 -33 -58 -8 7 -15 20 -15 29 0 17 18 41 30 41 3 0 11 -5
18 -12z"/>
<path d="M1440 3432 c-21 -6 -40 -32 -40 -53 0 -44 70 -67 90 -29 6 11 20 20
31 20 12 0 17 4 14 11 -4 6 -13 8 -20 5 -7 -2 -15 4 -18 14 -6 22 -36 39 -57
32z m24 -18 c19 -7 21 -45 4 -62 -7 -7 -17 -8 -30 -1 -21 11 -24 39 -6 57 14
14 12 14 32 6z"/>
<path d="M1396 3094 c-19 -18 -21 -55 -4 -72 17 -17 67 -15 74 3 4 8 17 15 30
15 13 0 24 5 24 10 0 6 -7 10 -16 10 -9 0 -25 11 -36 25 -22 29 -49 32 -72 9z
m62 -30 c4 -25 -20 -47 -42 -38 -16 6 -22 45 -9 58 14 14 48 1 51 -20z"/>
<path d="M1392 2758 c-27 -27 -5 -88 32 -88 13 0 31 9 41 20 10 11 24 20 32
20 7 0 13 4 13 10 0 5 -6 7 -13 4 -8 -3 -18 6 -25 21 -13 27 -58 35 -80 13z
m56 -10 c18 -18 15 -46 -6 -57 -13 -7 -23 -6 -30 1 -16 16 -15 55 1 61 19 8
22 8 35 -5z"/>
<path d="M1397 2402 c-23 -25 -21 -55 3 -77 17 -15 24 -16 45 -7 14 6 25 16
25 22 0 5 9 10 20 10 11 0 20 5 20 10 0 6 -6 10 -14 10 -7 0 -21 11 -30 25
-19 30 -46 32 -69 7z m58 -37 c0 -25 -4 -30 -25 -30 -16 0 -26 6 -28 18 -6 30
6 49 30 45 18 -2 23 -9 23 -33z"/>
<path d="M960 1034 c0 -66 52 -1029 56 -1033 2 -2 6 -2 8 0 6 6 -52 1060 -58
1067 -3 3 -6 -12 -6 -34z"/>
</g>
</svg>
