<svg version="1.1" id="Layer_1" xmlns="http://www.w3.org/2000/svg" xmlns:xlink="http://www.w3.org/1999/xlink" x="0px" y="0px"
	 width="100%" viewBox="0 0 1280 1280" enable-background="new 0 0 1280 1280" xml:space="preserve">
<path fill="none" opacity="1.000000" stroke="#000000" stroke-linecap="round" stroke-linejoin="round" stroke-width="4.000000"
	d="
M752.000000,83.500000 
	C755.578491,82.250671 758.167053,84.997940 760.940308,86.144432 
	C778.391541,93.359131 795.609314,101.136429 813.017578,108.458176 
	C827.765564,114.661034 842.677246,120.474091 857.496704,126.508072 
	C869.679504,131.468475 881.829651,136.509003 894.000977,141.497635 
	C908.663635,147.507446 923.364746,153.424698 937.987854,159.529022 
	C946.388000,163.035599 955.625427,165.551193 962.728699,170.862823 
	C969.743286,176.108246 974.916382,184.024445 978.519348,192.491776 
	C987.048218,212.535172 990.755737,233.864716 994.864990,255.026215 
	C998.106384,271.718750 1000.429382,288.597473 1002.607971,305.486084 
	C1003.843445,315.063202 1006.631287,324.438629 1007.896057,334.013733 
	C1010.040039,350.243988 1014.433899,366.068970 1015.666504,382.487488 
	C1016.684692,396.048706 1019.250977,409.489227 1020.975525,423.003113 
	C1022.590027,435.655182 1023.977295,448.336090 1025.507446,460.999115 
	C1026.635864,470.337067 1027.743896,479.678925 1029.020264,488.997223 
	C1031.089355,504.102905 1032.463501,519.235168 1033.137207,534.493958 
	C1034.439697,563.990723 1036.670044,593.464844 1036.376831,622.998779 
	C1036.173218,643.496826 1035.850098,664.003296 1035.382935,684.497314 
	C1034.793701,710.355103 1032.756348,736.167969 1031.246460,761.985168 
	C1030.125732,781.152344 1029.895142,800.422546 1027.414917,819.488953 
	C1025.616821,833.310608 1024.173340,847.189026 1022.776367,861.027893 
	C1020.994873,878.676208 1019.023621,896.323181 1017.275146,913.977722 
	C1015.854614,928.320618 1014.839539,942.726868 1012.716003,957.032043 
	C1011.497620,965.239624 1011.600891,973.713562 1010.454224,981.993652 
	C1008.405579,996.788269 1007.552002,1011.703491 1005.773682,1026.532837 
	C1004.356934,1038.346924 1002.709167,1050.165405 1001.231567,1061.966431 
	C999.580200,1075.154785 997.729431,1088.372559 995.790039,1101.542725 
	C994.204407,1112.310547 992.712830,1123.152100 991.551392,1134.005493 
	C991.478577,1134.686279 990.358582,1134.935791 990.847961,1136.448242 
	C952.958679,1128.072510 915.069336,1119.696899 877.036682,1111.289429 
	C876.741516,1104.137329 878.866333,1097.640015 879.976318,1090.996094 
	C881.895203,1079.510376 883.605164,1067.989746 885.516663,1056.502808 
	C887.615295,1043.890503 888.909241,1031.136230 890.163818,1018.466736 
	C891.524719,1004.722656 894.424011,991.017334 893.237793,976.979919 
	C892.948486,973.556274 892.409668,969.293518 895.430176,965.937195 
	C897.609192,963.515869 897.066467,959.971619 897.385986,956.987793 
	C899.324951,938.880493 900.804871,920.745911 901.082275,902.501282 
	C901.477783,876.492676 903.314697,850.534607 903.694275,824.502808 
	C904.202271,789.667236 905.033569,754.824707 904.319275,720.003723 
	C903.765381,692.999023 903.852783,665.998596 903.394470,639.001770 
	C903.173584,625.991394 901.797913,613.002075 901.045715,599.997375 
	C900.953613,598.404663 900.250000,597.239563 899.756042,595.936401 
	C897.223633,596.072632 896.816223,597.696045 896.487793,599.497742 
	C894.177490,612.168640 891.830078,624.832703 889.500916,637.500183 
	C887.373474,649.069763 887.765747,660.852966 886.547607,672.504944 
	C885.330322,684.148987 884.169373,695.816528 883.576050,707.503845 
	C882.646423,725.816956 880.411072,744.053284 882.305115,762.520020 
	C883.644958,775.583435 883.028320,788.838684 883.538940,801.998474 
	C884.050903,815.195679 884.777039,828.367615 886.358032,841.517090 
	C887.710754,852.767883 887.746277,864.172729 888.531555,875.497803 
	C889.029358,882.676208 889.996216,889.823120 890.445129,897.003418 
	C890.767334,902.156494 890.710083,907.336792 890.880920,912.503967 
	C891.381958,927.659546 891.306885,942.833679 891.521423,957.999695 
	C891.566895,961.217102 889.766296,964.764954 893.000000,967.500000 
"/>
<path fill="none" opacity="1.000000" stroke="#000000" stroke-linecap="round" stroke-linejoin="round" stroke-width="4.000000"
	d="
M713.000000,53.000000 
	C711.189697,56.981705 713.958984,60.393650 714.667725,63.966732 
	C716.688904,74.157082 715.838867,84.300056 715.541748,94.501213 
	C715.073486,110.581810 712.849915,126.522163 711.165527,142.464661 
	C710.082031,152.719284 713.136719,160.120346 718.135071,168.712311 
	C727.497925,184.806717 737.407593,200.663101 745.561584,217.470123 
	C746.677063,219.769241 748.624573,221.664673 750.276672,223.866638 
	C765.141296,215.820206 777.263855,204.908096 789.417114,193.339539 
	C785.439148,184.547318 781.663574,175.679230 777.450806,167.023956 
	C772.217773,156.272552 769.181580,144.779007 765.516724,133.494568 
	C762.765137,125.022148 760.063232,116.530678 757.530457,107.990959 
	C755.219910,100.200294 752.975403,92.377625 751.143982,84.466660 
	C750.723267,82.649376 750.133301,81.057617 748.950317,80.058815 
	C738.368835,71.124611 727.938843,61.972610 716.894409,53.639931 
	C710.616455,48.903404 702.479065,47.336071 694.944275,45.767815 
	C686.525696,44.015606 678.229797,41.598747 669.515198,40.828159 
	C652.773987,39.347809 636.285950,38.563831 619.441528,41.113834 
	C609.183350,42.666779 598.768311,44.031990 588.550903,45.794926 
	C577.394531,47.719864 566.555481,51.863232 558.023560,60.024632 
	C550.063843,67.638695 540.616943,73.470001 532.904541,81.407227 
	C530.557495,83.822662 526.558472,84.036392 523.405151,85.254425 
	C500.664246,94.038536 478.473938,104.105675 456.016846,113.540062 
	C433.440308,123.024605 411.093109,133.058350 388.467041,142.420380 
	C373.542908,148.595566 358.779022,155.177124 343.531281,160.588150 
	C337.327332,162.789795 330.840302,164.708435 325.121338,167.729691 
	C315.596954,172.761276 309.306091,181.385101 304.490967,190.995468 
	C298.641479,202.670364 297.212585,215.578110 293.873901,227.966019 
	C289.870453,242.820541 286.916290,257.888855 284.692932,273.028320 
	C282.120087,290.547211 279.378571,308.042114 276.354034,325.474670 
	C273.891296,339.669128 271.642090,353.914215 268.698914,368.041443 
	C267.418365,374.188080 267.540955,380.715973 266.467529,386.994446 
	C264.452148,398.782074 263.350159,410.703979 261.805054,422.539825 
	C260.181549,434.976318 258.403076,447.449738 257.433289,459.994843 
	C256.992859,465.691864 255.399796,471.309235 255.083008,477.004608 
	C254.207703,492.740723 250.913589,508.183716 250.321960,523.993347 
	C249.367538,549.497498 247.956451,574.989197 246.903992,600.496033 
	C246.214874,617.197327 246.992310,633.835571 247.468704,650.500916 
	C247.659119,657.162109 247.510559,663.833313 247.498047,670.500000 
	C247.459778,690.884644 249.188644,711.178589 250.353638,731.508362 
	C251.126587,744.997070 251.650681,758.508850 252.496735,772.000183 
	C253.510529,788.166016 253.808762,804.413269 255.666626,820.480713 
	C258.268951,842.986450 260.344666,865.550171 263.335754,888.021851 
	C265.806183,906.581543 266.247894,925.410339 268.690308,943.974976 
	C270.552826,958.131897 270.837219,972.426453 273.349640,986.526794 
	C274.838104,994.880371 274.628357,1003.522278 275.549133,1011.994690 
	C276.855530,1024.015747 278.480042,1036.002563 280.008240,1047.998901 
	C280.794556,1054.171509 281.549622,1060.351929 282.525116,1066.495972 
	C284.373566,1078.138062 285.771576,1089.856689 287.245270,1101.532104 
	C288.611694,1112.357666 290.374298,1123.140991 291.514465,1133.998535 
	C291.568207,1134.510376 291.833313,1135.000000 292.000000,1135.500000 
"/>
<path fill="none" opacity="1.000000" stroke="#000000" stroke-linecap="round" stroke-linejoin="round" stroke-width="4.000000"
	d="
M573.000000,862.000000 
	C575.833313,854.666687 578.911926,847.416870 581.445435,839.981384 
	C585.796875,827.210266 591.221313,814.888184 596.502930,802.501221 
	C603.824646,785.329590 611.191040,768.177063 618.491394,750.996338 
	C623.369812,739.515503 627.979370,727.916626 633.049500,716.522034 
	C638.809509,703.576904 643.246887,690.132446 648.514771,677.005920 
	C651.581360,669.364563 654.501160,661.644714 657.319885,653.934143 
	C663.294739,637.590515 669.291504,621.255493 675.524475,605.009399 
	C680.402222,592.295776 685.517517,579.673584 690.495544,566.998230 
	C696.514465,551.672363 702.548950,536.352234 708.485596,520.994446 
	C713.887146,507.020782 719.120911,492.982330 724.511047,479.004272 
	C731.950806,459.710999 739.304077,440.385071 746.648743,421.056519 
	C754.200317,401.183075 761.917236,381.359985 769.723328,361.588196 
	C775.872192,346.013977 781.258606,330.200531 786.985596,314.494751 
	C792.385681,299.685760 797.728943,284.855347 802.982788,269.993896 
	C808.393799,254.688034 813.960449,239.426758 818.878296,223.961304 
	C821.405090,216.015137 822.638611,207.660202 824.517456,199.504028 
	C825.061584,197.141983 825.545471,194.776886 826.325989,192.441833 
	C826.913696,190.683929 827.234192,188.212967 825.041443,186.448502 
	C822.841858,184.678604 820.763245,183.900574 817.989624,184.973145 
	C809.203552,188.370743 801.705566,194.069870 793.523071,198.542175 
	C789.391052,200.800613 785.458740,203.437332 781.519531,206.029633 
	C779.847290,207.130081 778.271973,207.386215 776.500000,206.500000 
"/>
<path fill="none" opacity="1.000000" stroke="#000000" stroke-linecap="round" stroke-linejoin="round" stroke-width="4.000000"
	d="
M710.500000,159.000000 
	C708.096436,161.424652 709.093140,164.657257 708.393799,167.473618 
	C705.568970,178.849228 704.564209,190.528381 702.767700,202.041779 
	C700.927979,213.832382 699.326660,225.703125 697.367188,237.477890 
	C694.696228,253.528351 691.666138,269.531738 688.680725,285.533722 
	C685.828064,300.824097 683.225708,316.176941 680.500183,331.500031 
	C677.013000,351.105255 673.102478,370.609650 668.718384,390.049255 
	C665.277710,405.305328 661.912903,420.614014 658.995667,435.999176 
	C656.182312,450.836304 653.371948,465.674164 650.485596,480.497192 
	C648.730164,489.512360 646.966187,498.530304 644.922852,507.482391 
	C644.271362,510.336700 645.482361,513.750183 642.540344,516.051575 
	C641.929138,516.529724 641.611328,517.646240 641.532532,518.502991 
	C639.705994,538.353088 634.010498,557.469788 630.422607,576.985779 
	C628.171753,589.228882 625.533386,601.432007 622.299805,613.446167 
	C621.177429,617.616394 622.074829,622.536194 618.523438,626.023865 
	C618.020508,626.517822 617.521301,627.345337 617.546509,627.998230 
	C617.975708,639.135010 613.531860,649.341797 611.600159,660.018127 
	C609.321045,672.614624 606.202881,685.008911 603.456787,697.490479 
	C599.599792,715.021729 595.699829,732.545349 591.691772,750.043945 
	C587.630310,767.775696 584.273499,785.688049 580.570435,803.514648 
	C576.914429,821.114319 573.875793,838.841675 570.390930,856.478455 
	C570.189331,857.498718 569.723816,858.798767 570.083191,859.454407 
	C572.745605,864.311768 569.982605,868.973206 569.237549,873.456360 
	C568.404053,878.471741 567.473145,883.389160 567.478271,888.500000 
	C567.517700,928.166687 567.893127,967.838135 567.407166,1007.498840 
	C566.692383,1065.833984 567.502197,1124.169556 566.865601,1182.498535 
	C566.658203,1201.500000 566.774536,1220.501099 566.467834,1239.499512 
	C566.449158,1240.655884 566.406860,1241.809692 566.126526,1243.029053 
	C565.323303,1246.524292 567.218628,1248.518188 570.999817,1248.482300 
	C602.833435,1248.180176 634.667358,1247.887573 666.499695,1247.476318 
	C681.668152,1247.280396 696.831848,1246.690308 712.000305,1246.532104 
	C737.668152,1246.264282 763.330750,1245.646240 788.997742,1245.320068 
	C815.331055,1244.985596 841.662354,1244.492920 868.000000,1244.499512 
	C878.668091,1244.502197 889.336182,1244.500000 900.500000,1244.500000 
	C900.500000,1234.172485 900.630066,1224.583862 900.463562,1215.000610 
	C900.295593,1205.331177 899.810974,1195.667358 899.504639,1185.999878 
	C898.823303,1164.500366 898.147888,1143.000488 897.541077,1121.498901 
	C897.499329,1120.019409 896.884460,1118.394531 898.000000,1117.000000 
"/>
<path fill="none" opacity="1.000000" stroke="#000000" stroke-linecap="round" stroke-linejoin="round" stroke-width="4.000000"
	d="
M503.500000,204.000000 
	C498.494965,204.745392 495.304932,201.076828 491.520386,198.963516 
	C484.283569,194.922455 477.164795,190.669891 470.001587,186.497284 
	C468.572632,185.664917 466.934784,185.112183 465.585602,184.348724 
	C462.653778,182.689728 460.353699,183.601074 458.019348,185.031586 
	C455.455139,186.602951 456.145325,189.444107 456.605530,191.476105 
	C460.664429,209.398834 465.006348,227.220520 471.401184,244.536499 
	C480.457520,269.059265 488.811920,293.840881 497.506226,318.497803 
	C505.506317,341.185913 513.842468,363.744202 522.947021,386.021667 
	C528.074585,398.568054 532.638062,411.344330 537.507263,423.997192 
	C543.476685,439.508972 549.540039,454.984650 555.489014,470.504211 
	C561.870605,487.152344 568.107788,503.856018 574.517273,520.493347 
	C580.436340,535.857849 586.497559,551.167603 592.500671,566.499756 
	C598.830933,582.667603 605.082092,598.867310 611.558228,614.976624 
	C613.219116,619.108154 613.225464,624.137268 617.500000,627.000000 
"/>
<path fill="none" opacity="1.000000" stroke="#000000" stroke-linecap="round" stroke-linejoin="round" stroke-width="4.000000"
	d="
M960.500000,171.000000 
	C958.283081,177.996872 958.727478,185.360886 957.549011,192.508087 
	C956.483582,198.969818 955.750061,205.490631 955.017212,212.001938 
	C953.460754,225.828918 952.511047,239.747284 950.345825,253.475677 
	C948.455872,265.458588 948.002502,277.589111 945.710632,289.540375 
	C944.526428,295.715637 944.705933,302.241791 943.455688,308.491150 
	C941.464844,318.442657 940.302429,328.541992 938.800598,338.545135 
	C936.979675,350.674011 935.010864,362.810577 933.448364,374.993378 
	C932.204285,384.692871 930.441040,394.324646 929.015808,404.002319 
	C927.446472,414.658783 926.136230,425.354797 924.461548,435.993958 
	C922.804321,446.521667 920.756470,456.987305 919.020569,467.503418 
	C917.097290,479.155212 915.574524,490.878143 913.418701,502.484894 
	C911.875122,510.795349 910.826416,519.166626 909.450195,527.491760 
	C907.653748,538.358704 905.568665,549.179932 903.479553,559.996033 
	C901.624023,569.602905 899.943787,579.228333 899.260010,589.000671 
	C899.108704,591.162659 899.083313,593.333313 898.999939,595.500000 
"/>
<path fill="none" opacity="1.000000" stroke="#000000" stroke-linecap="round" stroke-linejoin="round" stroke-width="4.000000"
	d="
M322.500000,171.000000 
	C324.659454,177.663651 324.340485,184.686768 325.437103,191.510117 
	C326.554749,198.464417 327.194946,205.496780 327.993988,212.500687 
	C329.514862,225.831635 330.518799,239.243881 332.642365,252.477158 
	C334.564667,264.456177 335.182648,276.565582 337.246399,288.543701 
	C338.689514,296.919708 339.054443,305.543518 340.459106,314.006775 
	C342.890594,328.656830 345.105408,343.355225 347.235901,358.038330 
	C349.068115,370.665985 351.272644,383.266022 352.610901,395.988342 
	C353.738831,406.711670 355.805817,417.337738 357.507172,427.998840 
	C359.476196,440.337128 361.499969,452.666656 363.500000,465.000000 
	C366.500000,483.500000 369.431366,502.011505 372.527466,520.495422 
	C374.206787,530.521179 376.357605,540.469666 377.953674,550.507385 
	C380.148315,564.309875 383.054565,578.003479 384.119446,591.990906 
	C384.359863,595.149170 382.091522,597.122131 381.941925,599.996948 
	C381.239197,613.503784 379.924561,626.990234 379.601868,640.502441 
	C379.184204,657.992432 379.695129,675.502808 379.445404,692.999207 
	C379.193207,710.669434 378.056488,728.334595 378.107635,745.999695 
	C378.178040,770.334229 379.051910,794.665771 379.473663,819.000427 
	C379.635376,828.330994 379.206512,837.677795 379.559113,846.997742 
	C380.372803,868.504822 381.606873,889.995850 382.447601,911.502075 
	C382.786407,920.168274 382.323944,928.858337 383.475586,937.503235 
	C384.428162,944.654053 385.181305,951.831665 385.993195,959.000793 
	C386.341217,962.074036 387.064697,964.838257 388.843842,967.600586 
	C390.556061,970.258972 389.499268,973.829834 389.483459,976.999939 
	C389.428284,988.070679 390.624847,999.034241 391.958496,1010.005066 
	C393.313141,1021.148865 394.485565,1032.320312 395.442291,1043.504883 
	C396.005859,1050.093628 397.929047,1056.405640 398.651093,1062.983398 
	C399.737518,1072.880493 401.584717,1082.717773 403.593567,1092.480713 
	C404.790955,1098.300171 405.662689,1104.071899 406.082825,1109.574097 
	C392.648224,1113.775146 379.478271,1116.387085 366.434540,1119.196045 
	C349.119049,1122.924927 331.909302,1127.175415 314.544922,1130.720093 
	C306.840698,1132.292725 298.874268,1133.379150 291.500000,1136.500000 
"/>
<path fill="none" opacity="1.000000" stroke="#000000" stroke-linecap="round" stroke-linejoin="round" stroke-width="4.000000"
	d="
M808.000000,527.500000 
	C807.666626,534.666687 807.459290,541.841858 806.974365,548.998291 
	C805.889648,565.003845 804.550598,580.992615 803.531067,597.001953 
	C802.395752,614.826660 801.056213,632.655945 800.624268,650.502991 
	C800.188660,668.497864 799.740051,686.501404 799.340637,704.496460 
	C798.149414,758.164917 798.652832,811.832397 798.550110,865.500122 
	C798.531555,875.166138 799.184143,884.832764 799.473633,894.500793 
	C799.503418,895.494934 799.166626,896.500000 799.000000,897.500000 
"/>
<path fill="none" opacity="1.000000" stroke="#000000" stroke-linecap="round" stroke-linejoin="round" stroke-width="4.000000"
	d="
M474.500000,528.500000 
	C476.250488,542.613708 476.267303,556.856628 477.594116,570.991150 
	C478.641632,582.150818 479.433746,593.313232 480.001892,604.499878 
	C480.492889,614.167053 481.092743,623.829590 481.481628,633.500732 
	C482.432922,657.158691 483.591431,680.805542 483.648743,704.499634 
	C483.666412,711.816956 483.834503,719.166687 483.994324,726.500122 
	C484.960663,770.830261 484.399323,815.166687 484.447021,859.500061 
	C484.460480,871.999695 483.833344,884.500000 483.500000,897.000000 
"/>
<path fill="none" opacity="1.000000" stroke="#000000" stroke-linecap="round" stroke-linejoin="round" stroke-width="4.000000"
	d="
M572.500000,158.000000 
	C575.709167,161.447708 574.606750,166.059952 575.300598,170.034805 
	C578.258728,186.980789 580.775940,204.016434 583.279358,221.032471 
	C585.643738,237.102921 588.521973,253.049149 591.455261,269.008209 
	C594.427673,285.180359 597.362976,301.364166 600.259338,317.543091 
	C602.972412,332.697998 605.460815,347.901855 608.531189,362.993652 
	C611.554993,377.856079 614.921021,392.648651 617.973145,407.505524 
	C620.571045,420.151794 623.075012,432.830170 625.733826,445.450745 
	C628.684631,459.457581 631.048889,473.588409 634.197876,487.568054 
	C635.890991,495.084900 637.660095,502.766449 638.379333,510.511200 
	C638.648438,513.407898 639.681458,515.517456 641.500000,517.500000 
"/>
<path fill="none" opacity="1.000000" stroke="#000000" stroke-linecap="round" stroke-linejoin="round" stroke-width="4.000000"
	d="
M384.500000,1116.000000 
	C385.332733,1122.166626 384.993805,1128.310913 384.582458,1134.505493 
	C384.019592,1142.982178 384.403961,1151.495972 384.117218,1160.003906 
	C383.286163,1184.659424 383.060028,1209.334839 382.433472,1233.998291 
	C382.342468,1237.581055 383.499054,1238.335205 386.990997,1238.613159 
	C418.457001,1241.119019 449.982422,1240.692383 481.497925,1241.143921 
	C494.832550,1241.334961 508.168121,1241.229370 521.499878,1241.504883 
	C536.029785,1241.805176 550.533081,1242.590820 565.000000,1244.000000 
"/>
<path fill="none" opacity="1.000000" stroke="#000000" stroke-linecap="round" stroke-linejoin="round" stroke-width="4.000000"
	d="
M384.500000,596.000000 
	C387.971985,599.675293 387.487671,604.644043 388.362427,609.027466 
	C390.607574,620.278564 392.322144,631.644470 393.946198,643.007690 
	C395.060059,650.800903 395.741730,658.659607 396.481567,666.501709 
	C397.470856,676.988220 398.635895,687.445862 399.100464,697.995605 
	C400.047058,719.492188 402.750824,740.894836 400.638458,762.513550 
	C399.522278,773.937012 399.829620,785.499878 399.500916,797.000000 
	C399.080536,811.706360 398.431854,826.374023 396.637024,841.016785 
	C395.278687,852.098694 395.251984,863.339294 394.469360,874.497864 
	C393.965942,881.675964 393.003723,888.823120 392.554810,896.003418 
	C392.232635,901.156494 392.121338,906.361633 392.146851,911.499268 
	C392.230316,928.334534 390.505280,945.163513 391.940979,962.005005 
	C392.079407,963.628784 391.376831,965.315613 390.000000,966.500000 
"/>
<path fill="none" opacity="1.000000" stroke="#000000" stroke-linecap="round" stroke-linejoin="round" stroke-width="4.000000"
	d="
M394.000000,893.500000 
	C401.898590,895.622742 410.008514,894.373291 418.008209,894.866760 
	C442.819092,896.397522 467.665863,897.350769 492.500946,898.479187 
	C495.827423,898.630371 499.170410,898.599060 502.498993,898.473328 
	C506.138275,898.335938 507.301300,900.108765 507.018250,903.501526 
	C505.808746,917.997925 504.713806,932.504089 503.464966,946.996948 
	C503.173584,950.378357 502.978668,953.782959 501.540527,957.018005 
	C498.797729,963.187805 493.804657,965.592468 487.500885,965.458069 
	C469.665009,965.077820 451.832031,964.542542 434.000427,963.986328 
	C420.164948,963.554810 406.333344,962.999939 392.500000,962.499939 
"/>
<path fill="none" opacity="1.000000" stroke="#000000" stroke-linecap="round" stroke-linejoin="round" stroke-width="4.000000"
	d="
M889.000000,894.500000 
	C869.833313,895.500000 850.671753,896.614624 831.498230,897.459167 
	C819.007751,898.009338 806.498047,898.107605 794.000854,898.525818 
	C788.066406,898.724487 782.195984,899.847229 776.026306,899.507996 
	C776.535095,909.172424 776.518494,918.397949 777.642395,927.482361 
	C778.734741,936.312195 778.757690,945.231506 780.415894,954.015869 
	C781.640076,960.501282 786.437866,965.228455 792.999512,965.511780 
	C816.533691,966.528015 840.002319,964.600769 863.499573,963.983582 
	C872.335571,963.751465 881.166687,963.333313 890.000000,962.999939 
"/>
<path fill="none" opacity="1.000000" stroke="#000000" stroke-linecap="round" stroke-linejoin="round" stroke-width="4.000000"
	d="
M715.000000,79.500000 
	C708.330811,79.109489 702.288330,76.088196 696.104492,74.164192 
	C687.803711,71.581581 679.364624,70.884850 670.980286,69.631859 
	C661.566040,68.224953 652.013489,67.495918 642.495361,67.115433 
	C635.852661,66.849884 629.160278,67.571671 622.501465,68.021492 
	C611.568298,68.760056 600.666321,69.976906 590.019958,72.581696 
	C582.604126,74.396126 575.515503,77.449837 568.000000,79.000000 
"/>
<path fill="none" opacity="1.000000" stroke="#000000" stroke-linecap="round" stroke-linejoin="round" stroke-width="4.000000"
	d="
M531.500000,83.000000 
	C530.872314,90.865944 527.689331,98.054893 525.469543,105.490898 
	C521.578918,118.523567 517.238220,131.426941 513.583435,144.523285 
	C510.697968,154.862991 505.877136,164.318893 501.510559,174.004761 
	C499.118164,179.311478 496.829803,184.665131 494.502319,190.001007 
	C493.881531,191.424133 493.659607,192.657654 494.970490,194.028229 
	C505.862793,205.416855 518.201111,214.902832 532.004822,222.491287 
	C532.132812,222.561646 532.333313,222.500000 532.929077,222.500000 
	C537.445801,217.470688 539.939209,210.885239 543.427673,204.957443 
	C551.982361,190.421066 559.419250,175.159561 568.860107,161.244308 
	C572.751892,155.508026 572.440247,150.674271 571.991516,145.000671 
	C571.358521,136.998001 570.894287,128.972870 569.945068,121.006546 
	C568.617249,109.862793 567.048096,98.747505 567.014832,87.499954 
	C566.984131,77.102783 566.527161,66.641251 569.611328,56.533966 
	C569.992371,55.285038 569.626709,54.500000 569.500000,53.500000 
"/>
<path fill="none" opacity="1.000000" stroke="#000000" stroke-linecap="round" stroke-linejoin="round" stroke-width="4.000000"
	d="
M394.000000,903.000061 
	C401.666656,903.500061 409.335754,904.450317 416.999512,904.409119 
	C434.541016,904.314880 451.983032,906.207336 469.498993,906.551025 
	C481.337585,906.783386 493.166656,907.500000 505.000000,908.000000 
"/>
<path fill="none" opacity="1.000000" stroke="#000000" stroke-linecap="round" stroke-linejoin="round" stroke-width="4.000000"
	d="
M889.000000,904.000000 
	C866.641296,904.433472 844.324219,905.779541 821.998169,906.965454 
	C809.008240,907.655396 795.999084,907.977844 783.001160,908.527405 
	C781.336426,908.597778 779.577454,907.941284 778.000000,909.000000 
"/>
<path fill="none" opacity="1.000000" stroke="#000000" stroke-linecap="round" stroke-linejoin="round" stroke-width="4.000000"
	d="
M603.500000,884.000000 
	C602.061279,878.520142 600.386902,873.200684 593.998291,871.506409 
	C587.291382,869.727844 580.471436,873.970398 578.575745,881.519043 
	C577.490234,885.841553 580.511780,893.079773 586.999817,895.500427 
	C592.652832,897.609497 598.838074,895.073853 601.484558,889.492676 
	C602.252136,887.873840 602.833374,886.166687 603.500000,884.500000 
"/>
<path fill="none" opacity="1.000000" stroke="#000000" stroke-linecap="round" stroke-linejoin="round" stroke-width="4.000000"
	d="
M547.000000,725.000000 
	C557.188599,722.803345 560.681335,715.170410 557.445435,707.021667 
	C555.625916,702.439758 550.271118,699.208313 546.000000,699.499939 
	C541.841492,699.783997 535.640259,704.906799 534.499939,709.000000 
	C533.267456,713.424622 535.893372,719.706360 539.982056,722.526001 
	C541.984070,723.906677 544.135620,724.680664 546.500000,725.000000 
"/>
<path fill="none" opacity="1.000000" stroke="#000000" stroke-linecap="round" stroke-linejoin="round" stroke-width="4.000000"
	d="
M295.000000,1079.500000 
	C291.382599,1083.119873 289.815735,1088.491943 291.500000,1091.500000 
	C293.095642,1094.349609 296.968048,1095.801758 299.500031,1094.500000 
	C303.514954,1092.435913 305.778198,1087.259888 303.983002,1084.009399 
	C302.267609,1080.903320 299.499268,1079.334473 296.000000,1079.000000 
"/>
<path fill="none" opacity="1.000000" stroke="#000000" stroke-linecap="round" stroke-linejoin="round" stroke-width="4.000000"
	d="
M987.000000,1079.500000 
	C991.521240,1083.235474 993.310486,1087.390625 991.431641,1090.964111 
	C990.051819,1093.588623 988.108765,1096.422852 984.524475,1095.413208 
	C981.019653,1094.426025 978.914307,1091.655151 978.545349,1087.995483 
	C978.172058,1084.293213 980.140137,1082.070190 983.412109,1080.334351 
	C984.570862,1079.719604 987.226501,1080.125366 987.000000,1077.500000 
"/>
<path fill="none" opacity="1.000000" stroke="#000000" stroke-linecap="round" stroke-linejoin="round" stroke-width="4.000000"
	d="
M294.000000,1057.000000 
	C298.897614,1051.567383 299.338196,1047.283569 295.518097,1043.481812 
	C293.796143,1041.768188 291.964630,1040.303589 289.525818,1041.550537 
	C286.939117,1042.872925 284.834290,1044.765137 284.481964,1047.998047 
	C284.113342,1051.380493 285.032166,1054.861816 288.068573,1055.770996 
	C291.399292,1056.768311 293.259155,1059.623535 296.471863,1060.593262 
	C299.856964,1061.614990 301.695892,1064.258667 301.499847,1068.000000 
	C301.301208,1071.790039 299.600128,1074.755615 295.969269,1075.902710 
	C293.707672,1076.617065 291.707336,1075.318970 289.954590,1073.544922 
	C287.062347,1070.617310 287.860229,1067.227173 288.639313,1064.033936 
	C288.973480,1062.664307 290.833313,1061.666626 291.999969,1060.500000 
"/>
<path fill="none" opacity="1.000000" stroke="#000000" stroke-linecap="round" stroke-linejoin="round" stroke-width="4.000000"
	d="
M791.500000,229.500000 
	C791.746033,231.108459 790.782471,231.663406 789.560364,232.580444 
	C781.775085,238.422363 774.166687,244.499985 766.500000,250.499985 
"/>
<path fill="none" opacity="1.000000" stroke="#000000" stroke-linecap="round" stroke-linejoin="round" stroke-width="4.000000"
	d="
M977.500000,1044.500000 
	C978.721680,1045.280029 980.054504,1045.554688 981.500366,1045.514038 
	C983.253601,1045.464844 985.070129,1046.454712 984.882080,1047.985474 
	C984.135803,1054.061279 988.954041,1057.330811 991.669861,1061.386230 
	C996.760132,1068.987427 996.200806,1073.043579 988.016541,1076.992065 
	C986.112000,1076.332153 984.773438,1074.922485 983.516602,1073.485474 
	C980.167786,1069.656250 980.779114,1065.078735 985.006714,1062.009277 
	C986.464417,1060.951050 988.000000,1060.000000 989.500000,1059.000000 
"/>
<path fill="none" opacity="1.000000" stroke="#000000" stroke-linecap="round" stroke-linejoin="round" stroke-width="4.000000"
	d="
M296.500000,1026.500000 
	C294.179169,1025.984375 294.131195,1023.056396 291.537354,1022.360718 
	C286.705383,1021.064819 282.811432,1023.819458 282.500000,1029.500000 
	C282.289520,1033.339355 284.794495,1036.679077 288.500031,1037.499878 
	C290.994263,1038.052490 294.690338,1035.148438 295.499969,1032.000000 
	C297.236359,1025.247559 297.344086,1025.163818 304.500000,1025.000000 
"/>
<path fill="none" opacity="1.000000" stroke="#000000" stroke-linecap="round" stroke-linejoin="round" stroke-width="4.000000"
	d="
M984.500061,1046.500000 
	C985.000061,1046.000000 985.524353,1045.521851 985.995850,1044.996216 
	C988.026001,1042.732910 990.187134,1041.159058 993.513489,1042.465576 
	C996.798645,1043.755981 998.202332,1046.203003 998.493835,1049.500488 
	C998.809387,1053.071167 997.072754,1055.431763 994.004517,1057.008789 
	C992.810547,1057.622314 991.666687,1058.333374 990.500000,1059.000000 
"/>
<path fill="none" opacity="1.000000" stroke="#000000" stroke-linecap="round" stroke-linejoin="round" stroke-width="4.000000"
	d="
M987.000000,1027.500000 
	C987.225281,1032.134644 988.241882,1036.337769 993.307495,1038.420898 
	C1001.132202,1036.407471 1001.838562,1029.615723 999.443054,1025.533447 
	C997.157104,1021.637878 992.948669,1021.351990 989.505249,1024.505737 
	C988.636963,1025.300903 987.833313,1026.166626 987.000000,1027.000000 
"/>
<path fill="none" opacity="1.000000" stroke="#000000" stroke-linecap="round" stroke-linejoin="round" stroke-width="4.000000"
	d="
M614.000000,884.500000 
	C610.666687,884.500000 607.333313,884.500000 604.000000,884.500000 
"/>
<path fill="none" opacity="1.000000" stroke="#000000" stroke-linecap="round" stroke-linejoin="round" stroke-width="4.000000"
	d="
M884.500000,400.000031 
	C875.833313,401.166687 867.095215,401.958649 858.518188,403.595276 
	C847.894104,405.622498 837.130371,406.714172 826.459900,408.214844 
	C813.008057,410.106720 799.526184,412.030701 786.008667,413.575653 
	C778.002441,414.490692 770.059753,415.923798 762.007019,416.585144 
	C759.159363,416.818970 757.465027,418.468842 757.394714,421.997894 
	C757.195251,432.003906 756.522827,442.001221 755.984619,451.999176 
	C755.841858,454.650757 757.290771,455.163757 759.500732,455.010529 
	C763.530396,454.731171 767.489319,453.876831 771.481140,453.355499 
	C789.357788,451.020844 807.146301,448.019592 825.006531,445.547363 
	C838.853394,443.630646 852.715637,441.874176 866.527344,439.671387 
	C871.963013,438.804443 877.505371,438.203888 883.007874,437.568268 
	C885.421387,437.289520 886.401550,436.447662 886.539307,434.002228 
	C887.112427,423.830292 887.898560,413.670166 888.445129,403.497040 
	C888.554932,401.453979 887.596313,399.737030 885.000000,400.000000 
"/>
<path fill="none" opacity="1.000000" stroke="#000000" stroke-linecap="round" stroke-linejoin="round" stroke-width="4.000000"
	d="
M730.500000,699.000000 
	C724.465088,699.965088 721.045837,703.834839 720.101624,709.516907 
	C719.231567,714.752502 721.459656,719.021484 725.991394,722.013062 
	C730.419678,724.936279 738.145386,723.620728 741.524353,719.520081 
	C744.522217,715.881897 744.897034,707.732361 741.994751,704.004089 
	C739.211426,700.428589 735.681030,698.435120 731.000000,699.000000 
"/>
<path fill="none" opacity="1.000000" stroke="#000000" stroke-linecap="round" stroke-linejoin="round" stroke-width="4.000000"
	d="
M699.000000,868.500000 
	C696.552795,869.594727 694.013062,870.743896 692.551575,873.032959 
	C689.998169,877.032532 688.304810,881.237427 690.973022,886.015076 
	C693.326294,890.228882 696.672729,892.985901 701.504333,893.455627 
	C705.781189,893.871582 711.864258,889.660095 713.500000,885.500000 
	C715.176270,881.236816 713.113464,874.879578 709.558838,871.439209 
	C706.589783,868.565613 703.176270,868.356873 699.500000,868.500000 
"/>
</svg>