<svg version="1.1" id="Layer_1" xmlns="http://www.w3.org/2000/svg" xmlns:xlink="http://www.w3.org/1999/xlink" x="0px" y="0px"
	 width="100%" viewBox="0 0 832 544" enable-background="new 0 0 832 544" xml:space="preserve">
<path fill="#000000" opacity="1.000000" stroke="none" 
	d="
M821.280029,317.650146 
	C819.618591,328.353241 814.861267,337.353210 809.729431,346.127167 
	C793.763428,373.424377 773.947937,397.906250 753.573059,421.937378 
	C733.740845,445.328369 712.983826,467.887878 691.137390,489.419800 
	C681.408508,499.008545 671.373291,508.280701 660.734497,516.872131 
	C648.152039,527.033203 646.014709,526.924255 635.873962,514.578003 
	C614.823242,488.948853 594.975647,462.375702 574.798401,436.065277 
	C571.651062,431.961243 568.825256,431.029449 563.892639,432.338806 
	C537.178467,439.430054 510.037384,444.243652 482.567749,447.459900 
	C446.560944,451.675812 410.493866,452.701019 374.371613,450.127472 
	C331.264771,447.056305 288.813171,440.134399 247.730713,426.249268 
	C243.853073,424.938690 241.912491,426.398193 239.701950,429.012054 
	C220.011063,452.295807 200.991852,476.120789 182.133163,500.078491 
	C176.675278,507.012177 171.445663,514.157471 165.217285,520.442078 
	C160.510681,525.191162 158.373169,525.335266 153.317001,520.861694 
	C141.015915,509.977875 131.077286,496.970367 121.141899,484.021881 
	C90.573318,444.182770 62.271755,402.826355 38.316593,358.615356 
	C35.223408,352.906647 32.546783,346.973785 29.595703,341.186279 
	C21.370798,325.056091 20.172853,307.976379 21.407743,290.181030 
	C25.562895,230.303406 37.546238,171.718369 49.499386,113.094505 
	C51.831757,101.655464 59.990318,96.054031 68.922768,91.166084 
	C87.615227,80.937347 107.964760,75.026184 128.449860,69.672157 
	C163.908035,60.404755 199.993973,54.663315 236.383682,50.563400 
	C271.616791,46.593788 306.929504,43.997993 342.358368,42.517754 
	C384.656250,40.750519 426.958527,40.181347 469.268372,41.048420 
	C497.233093,41.621517 525.204834,42.575310 553.108887,44.663055 
	C603.051331,48.399677 652.783997,53.729359 701.567322,65.665382 
	C722.791565,70.858414 743.598877,77.306580 763.253845,87.051437 
	C763.701538,87.273445 764.139221,87.515640 764.586853,87.737923 
	C779.403625,95.095734 788.609741,105.930206 792.498535,122.927986 
	C800.132263,156.295166 808.502319,189.494370 813.895752,223.316208 
	C816.981506,242.666519 819.413330,262.114136 820.553406,281.735443 
	C821.240906,293.569824 821.149902,305.370819 821.280029,317.650146 
M103.426376,169.040604 
	C134.529327,190.963913 168.583603,207.270691 203.623123,221.705429 
	C205.522202,222.487762 207.355255,222.723465 209.442245,222.264481 
	C246.172226,214.186523 283.318878,209.003479 320.756134,205.437302 
	C349.626343,202.687195 378.546661,201.241959 407.491913,201.169373 
	C437.274384,201.094650 467.040283,202.332260 496.723694,205.502731 
	C525.192017,208.543396 553.608582,212.125854 581.253845,219.423538 
	C595.432251,223.166306 607.529724,222.324661 620.783691,215.991684 
	C654.113586,200.066010 689.206177,187.897141 720.903564,168.452377 
	C739.513733,157.035995 758.460571,146.165009 774.460327,131.036591 
	C779.175720,126.578003 782.875732,121.886101 779.146484,114.924042 
	C778.544006,113.799339 778.235291,112.300621 778.367004,111.034760 
	C779.171631,103.302223 774.435486,99.147324 768.675049,95.598579 
	C766.406616,94.201088 764.183655,92.714027 761.835693,91.463570 
	C740.627258,80.168564 717.752991,73.632675 694.525635,68.209366 
	C657.044312,59.457951 618.973999,54.706303 580.687256,51.135677 
	C548.510376,48.134857 516.260010,46.295998 484.004730,45.607510 
	C442.540131,44.722435 401.042694,44.557407 359.558136,46.070843 
	C326.455902,47.278481 293.409821,49.031952 260.424194,52.139389 
	C230.453751,54.962772 200.627258,58.720894 171.054932,64.357483 
	C141.915131,69.911621 113.095268,76.676018 85.628059,88.218117 
	C76.390388,92.099907 67.351074,96.420448 60.027935,103.496277 
	C54.620964,108.720650 53.775421,113.366402 56.844242,120.233345 
	C59.232849,125.578201 62.375072,130.482559 66.012253,135.080383 
	C76.455505,148.281891 89.320137,158.815292 103.426376,169.040604 
M588.463440,447.058563 
	C591.107422,450.489685 593.746582,453.924500 596.396179,457.351257 
	C610.968506,476.197662 625.328064,495.211792 640.583496,513.520325 
	C647.004883,521.226990 647.146851,521.231934 655.375916,515.317078 
	C664.058960,509.075928 671.942993,501.879120 679.657410,494.524719 
	C706.939331,468.516022 732.485474,440.865814 756.573669,411.891693 
	C775.006470,389.720154 792.742188,367.019867 807.266846,341.978882 
	C814.117920,330.167358 818.005005,317.908630 817.200745,303.984955 
	C816.049500,284.054230 814.776062,264.158417 812.141357,244.359680 
	C806.996277,205.696136 798.940430,167.612305 789.418457,129.820801 
	C788.964172,128.017624 789.022766,125.737907 786.173035,124.486084 
	C782.055054,129.462601 777.721863,134.481644 772.593628,138.697723 
	C746.686707,159.996582 718.156921,177.336731 687.661499,190.843307 
	C620.364258,220.649612 552.550476,249.289383 484.954590,278.421814 
	C477.056488,281.825714 469.203613,285.334595 460.631592,289.101624 
	C506.434998,339.607025 546.831543,393.372925 588.463440,447.058563 
M102.567055,451.971619 
	C112.292412,464.878784 121.839218,477.925812 131.803055,490.646179 
	C138.987915,499.818726 146.502548,508.746368 154.966995,516.828186 
	C158.066971,519.788025 160.296432,519.684998 163.166702,516.424011 
	C171.651535,506.784180 179.504761,496.639160 187.416992,486.547943 
	C243.119156,415.505798 303.104401,348.329407 368.234924,285.782043 
	C369.037933,285.010864 370.187622,284.394592 369.961731,282.677948 
	C369.431061,282.342072 368.806061,281.766144 368.069611,281.506897 
	C352.837402,276.144867 337.790283,270.139343 322.307190,265.633270 
	C293.849030,257.351013 265.423309,249.012115 237.527191,238.980621 
	C193.704254,223.221817 150.870087,205.277802 111.653618,179.772507 
	C88.465767,164.691757 66.763145,147.909683 52.896935,123.084244 
	C52.824471,122.954498 52.370663,123.037758 52.052757,123.019058 
	C51.878952,123.471977 51.632328,123.918900 51.534916,124.396263 
	C40.287590,179.511658 29.307102,234.662354 25.438202,290.942841 
	C24.180477,309.238861 26.587673,326.464630 35.039837,343.180176 
	C54.281834,381.234375 77.607727,416.667267 102.567055,451.971619 
M344.575806,362.076324 
	C333.444275,387.378143 332.594208,414.238373 333.199585,441.361298 
	C388.858429,453.566528 528.397095,444.985107 566.740356,426.804474 
	C566.763611,424.936462 565.253052,423.910706 564.278503,422.657135 
	C551.391418,406.079865 538.533386,389.478821 525.506714,373.011383 
	C504.619995,346.607697 483.431641,320.455536 460.687012,295.598541 
	C457.555847,292.176575 454.983765,291.202087 450.488708,293.270020 
	C426.882385,304.129944 403.029480,314.436768 379.580353,325.663300 
	C363.428680,333.396027 352.042542,345.194427 344.575806,362.076324 
M368.814606,277.518311 
	C370.454865,278.314911 372.164886,278.994873 373.724335,279.926697 
	C385.731689,287.101624 397.818390,294.154022 409.633545,301.634460 
	C413.362305,303.995270 416.331299,304.044861 420.179565,302.209656 
	C428.741943,298.126465 437.480804,294.406952 446.197937,290.655853 
	C493.457825,270.319122 540.736267,250.025375 587.989746,229.673782 
	C589.668823,228.950623 591.795471,228.704193 593.134277,226.042404 
	C530.799866,210.777603 467.936554,204.857224 404.348175,205.290390 
	C340.985016,205.722031 278.280243,212.039658 215.484970,225.093781 
	C217.704865,227.590820 219.601013,227.862625 221.270920,228.508057 
	C238.666031,235.231201 256.340851,241.151535 274.089874,246.861862 
	C305.440155,256.948090 337.535553,264.729095 368.814606,277.518311 
M312.525360,348.007233 
	C289.892303,371.646606 267.982208,395.928497 246.159592,421.436157 
	C273.768738,430.939728 301.007080,436.974426 329.000366,441.003204 
	C329.202301,439.435913 329.400238,438.794037 329.348297,438.173126 
	C327.609497,417.399841 329.669281,396.917450 334.933868,376.841156 
	C341.691742,351.070221 355.416473,330.729736 381.155243,320.285706 
	C385.931305,318.347748 390.495056,315.886597 395.156982,313.667267 
	C399.753967,311.478821 404.351166,309.290802 409.809906,306.692444 
	C398.066681,299.526947 387.152649,292.869141 376.240875,286.207703 
	C374.155365,284.934540 373.170471,286.737701 372.073242,287.813934 
	C352.090240,307.414215 332.082550,326.991119 312.525360,348.007233 
z"/>
<path fill="#000000" opacity="1.000000" stroke="none" 
	d="
M423.251099,347.692871 
	C446.258270,345.641510 464.102722,366.186584 458.195129,389.241302 
	C454.316162,404.379150 438.509918,415.111694 422.830475,413.203247 
	C406.182220,411.176849 393.831635,397.821472 393.657257,381.656647 
	C393.457855,363.165894 404.300171,350.530975 423.251099,347.692871 
M408.813141,404.729584 
	C409.509521,405.185150 410.186890,405.673462 410.905182,406.091370 
	C422.254700,412.695221 434.138489,412.024200 444.583313,404.200226 
	C454.491913,396.777924 458.671631,384.531525 455.511230,372.181824 
	C452.756042,361.415588 442.171936,352.294708 430.395905,350.538635 
	C417.764252,348.654938 404.409576,356.117157 399.030823,368.064484 
	C393.147217,381.133118 396.497437,394.333130 408.813141,404.729584 
z"/>
<path fill="#000000" opacity="1.000000" stroke="none" 
	d="
M438.282043,369.853027 
	C439.954956,373.365601 439.565155,376.202393 436.346100,377.865051 
	C434.209564,378.968536 431.768616,378.928619 429.857361,377.023224 
	C427.820618,374.992645 427.448822,372.471100 429.065308,370.205322 
	C431.628418,366.612701 434.816162,366.814819 438.282043,369.853027 
z"/>
<path fill="#000000" opacity="1.000000" stroke="none" 
	d="
M428.774689,385.757935 
	C430.289124,382.708221 432.529480,381.658417 435.427185,382.427155 
	C437.439575,382.961029 438.935638,384.258148 439.233185,386.486847 
	C439.529785,388.708618 439.241577,390.782288 437.235138,392.203247 
	C435.480621,393.445831 433.563690,393.629730 431.641449,392.701416 
	C428.854950,391.355682 428.085327,389.023773 428.774689,385.757935 
z"/>
<path fill="#000000" opacity="1.000000" stroke="none" 
	d="
M414.000214,385.049438 
	C415.870850,382.569550 417.964935,381.444000 420.703156,382.530792 
	C422.678284,383.314728 424.016388,384.752319 424.271515,386.958466 
	C424.518616,389.094788 423.909760,390.929352 422.081207,392.193756 
	C420.114746,393.553589 418.030640,393.670380 415.984161,392.421783 
	C413.220428,390.735626 413.145447,388.163483 414.000214,385.049438 
z"/>
<path fill="#000000" opacity="1.000000" stroke="none" 
	d="
M413.616272,371.535553 
	C415.255005,367.504242 418.167450,366.697998 421.430450,368.246124 
	C424.409515,369.659546 425.066681,372.528778 423.752686,375.483734 
	C422.466217,378.376709 419.866394,379.044983 417.041687,378.195068 
	C413.994995,377.278442 413.132935,374.875275 413.616272,371.535553 
z"/>
</svg>